<svg width="24" height="23" viewBox="0 0 24 23" fill="none"
    xmlns="http://www.w3.org/2000/svg">
    <path d="M18.0765 17.1661C16.5501 17.1661 15.2914 18.398 15.2914 19.9513C15.2914 21.4778 16.5233 22.7364 18.0765 22.7364C19.603 22.7364 20.8617 21.5045 20.8617 19.9513C20.8349 18.4248 19.603 17.1661 18.0765 17.1661Z" fill="currentColor"/>
    <path d="M22.9775 3.88315C22.924 3.88315 22.8436 3.85637 22.7633 3.85637H5.89167L5.62387 2.06209C5.46318 0.883751 4.44553 0 3.24042 0H1.07121C0.482046 0 0 0.482046 0 1.07121C0 1.66038 0.482046 2.14243 1.07121 2.14243H3.24042C3.37432 2.14243 3.48144 2.24955 3.50822 2.38345L5.1686 13.6847C5.38284 15.1041 6.61474 16.1753 8.06087 16.1753H19.2015C20.5941 16.1753 21.7992 15.1844 22.0938 13.8186L23.8345 5.11504C23.9416 4.55266 23.5667 3.99027 22.9775 3.88315Z" fill="currentColor"/>
    <path d="M11.2477 19.8174C11.1942 18.3445 9.96228 17.1661 8.48936 17.1661C6.9361 17.2465 5.75777 18.5319 5.81133 20.0584C5.86489 21.5313 7.07 22.7097 8.54292 22.7097H8.59648C10.123 22.6293 11.3281 21.3439 11.2477 19.8174Z" fill="currentColor"/>
</svg>
