<svg width="23" height="17" viewBox="0 0 23 17" fill="none" xmlns="http://www.w3.org/2000/svg">
<path d="M3.24483 2.44828C3.33462 3.30348 4.33393 12.7955 4.48817 14.2619C4.60476 15.3705 5.53383 16.2069 6.649 16.2069H17.9332C18.9507 16.2069 19.8442 15.4842 20.0579 14.4892L21.7972 6.37238C21.8892 5.94224 21.7835 5.49979 21.5069 5.15872C21.2302 4.81693 20.8197 4.62069 20.3801 4.62069H4.9299L4.61707 1.64883C4.57797 1.27952 4.26731 1 3.89655 1H1.72414C1.32441 1 1 1.32441 1 1.72414C1 2.12386 1.32441 2.44828 1.72414 2.44828H3.24483ZM20.3801 6.06897L18.6414 14.1858C18.5698 14.5175 18.2721 14.7586 17.9325 14.7586H6.649C6.27679 14.7586 5.96759 14.4798 5.92848 14.1105L5.08197 6.06897H20.3801Z" fill="black" stroke="black" stroke-width="0.4"/>
</svg>
