<svg width="215" height="212" viewBox="0 0 215 212" fill="none" xmlns="http://www.w3.org/2000/svg">
<circle cx="108.296" cy="102.5" r="87.5" fill="#E2D182"/>
<mask id="mask0" mask-type="alpha" maskUnits="userSpaceOnUse" x="0" y="0" width="215" height="212">
<ellipse cx="107.063" cy="105.897" rx="85.0554" ry="83.2079" transform="rotate(18.501 107.063 105.897)" fill="#A1C349"/>
</mask>
<g mask="url(#mask0)">
<g filter="url(#filter0_d)">
<path d="M48.504 191.308L165.724 190.179C159.267 182.044 148.954 173.19 140.532 166.476C132.664 160.295 126.465 156.04 126.465 156.04L125.723 147.526L124.252 131.792L85.6235 106.06L86.0816 153.625C82.1541 156.898 77.793 160.824 73.6529 164.855C60.6858 177.276 48.504 191.308 48.504 191.308Z" fill="#FBBBC2"/>
<path d="M85.6235 106.059L85.8282 127.307C97.8952 147.038 118.579 147.917 125.723 147.525L124.252 131.791L85.6235 106.059Z" fill="#FF8592"/>
<path d="M48.5039 191.306L165.724 190.177C159.267 182.042 148.954 173.188 140.532 166.474C136.175 170.83 124.828 180.216 108.114 180.377C91.1795 180.54 78.3169 169.554 73.5418 164.746C71.798 166.38 70.1641 168.014 68.5303 169.648C57.64 180.755 48.5039 191.306 48.5039 191.306Z" fill="#FFAD01"/>
<path d="M48.504 191.307L114.261 190.674L110.344 183.592C87.8051 184.133 74.2993 174.879 68.5314 169.757C57.6401 180.756 48.504 191.307 48.504 191.307Z" fill="#E29000"/>
<path d="M134.274 167.506C134.274 167.506 119.886 169.478 115.937 170.487C111.988 171.496 112.022 175.055 112.022 175.055" stroke="#3A1451" stroke-miterlimit="10" stroke-linecap="round" stroke-linejoin="round"/>
<path d="M80.6077 167.591C80.6077 167.591 96.9029 169.591 101.311 170.52C105.83 171.555 105.868 175.545 105.868 175.545" stroke="#3A1451" stroke-miterlimit="10" stroke-linecap="round" stroke-linejoin="round"/>
<path d="M138.518 162.935C138.518 162.935 140.553 168.632 141.752 190.409L130.866 190.514C130.866 190.514 131.426 168.72 128.992 155.799L138.518 162.935Z" fill="#F02715"/>
<path d="M91.8292 190.889C91.8292 190.889 88.1068 169.783 78.8625 157.684L72.4329 163.786C72.4329 163.786 77.8503 178.188 79.7333 191.006L91.8292 190.889Z" fill="#F02715"/>
<path d="M81.6627 94.4483C85.5863 113.611 95.4832 136.383 120.445 136.142C122.094 136.126 123.633 136.004 125.061 135.882C145.169 134.071 143.832 120.924 143.187 99.5727C142.417 76.7126 136.828 55.9484 112.966 56.1782C101.97 56.2841 94.5113 58.2975 89.3742 61.583C78.6644 68.5895 79.0079 81.4222 81.6627 94.4483Z" fill="#FBBBC2"/>
<path d="M81.6626 94.4491C85.5862 113.611 95.4831 136.383 120.445 136.143C122.094 136.127 123.632 136.005 125.061 135.883C110.534 134.836 99.3462 126.423 96.6986 114.152C94.5097 103.818 91.2914 77.9608 89.3751 61.6916C78.6643 68.5902 79.0078 81.4229 81.6626 94.4491Z" fill="#FF8592"/>
<path d="M89.5771 116.917C95.509 127.646 104.716 135.863 119.236 136.262" stroke="#3A1451" stroke-miterlimit="10" stroke-linecap="round" stroke-linejoin="round"/>
<path d="M127.102 96.5996C127.102 96.5996 132.665 103.234 132.354 105.179C132.043 107.124 127.656 108.46 127.656 108.46" stroke="#3A1451" stroke-miterlimit="10" stroke-linecap="round" stroke-linejoin="round"/>
<path d="M128.68 123.334C128.68 123.334 122.094 124.692 118.545 121.598" stroke="#3A1451" stroke-miterlimit="10" stroke-linecap="round" stroke-linejoin="round"/>
<path d="M106.823 103.375C108.489 105.085 110.152 106.471 111.811 107.534C119.67 112.743 127.914 112.34 132.745 111.539C135.38 111.082 136.913 110.42 136.913 110.42" stroke="#3A1451" stroke-miterlimit="10" stroke-linecap="round" stroke-linejoin="round"/>
<path d="M111.813 107.642C112.377 109.146 113.385 111.078 114.725 113.115C117.179 116.758 120.842 120.283 126.01 120.233C127.77 120.216 129.196 119.879 130.182 119.438C133.794 117.677 133.316 113.691 132.746 111.647C128.025 112.447 119.671 112.851 111.813 107.642Z" fill="#474747"/>
<path d="M114.725 113.115C117.18 116.759 120.843 120.283 126.011 120.233C127.77 120.216 129.197 119.879 130.182 119.438C128.069 116.978 122.741 111.851 114.725 113.115Z" fill="#FF6473"/>
<path d="M130.655 88.691C130.893 90.5225 131.895 91.8074 133.103 91.6879C134.312 91.5683 134.957 90.0519 134.72 88.2203C134.482 86.3887 133.48 85.1039 132.271 85.2234C131.173 85.3419 130.417 86.8594 130.655 88.691Z" fill="#3A1451"/>
<path d="M134.638 79.7006C134.947 77.5401 127.234 75.9963 127.484 79.1222C127.719 80.7381 134.329 81.861 134.638 79.7006Z" fill="#3A1451"/>
<path d="M114.279 89.6054C114.517 91.5448 113.763 93.1702 112.554 93.2897C111.346 93.4092 110.233 92.0176 109.994 90.0781C109.755 88.1387 110.51 86.5133 111.718 86.3938C112.927 86.2743 114.04 87.6659 114.279 89.6054Z" fill="#3A1451"/>
<path d="M107.82 81.361C106.921 79.32 114.476 75.7953 114.947 79.027C115.292 80.6418 108.721 83.5098 107.82 81.361Z" fill="#3A1451"/>
<path d="M68.9299 85.5101C68.9299 85.5101 64.3811 92.7809 73.9075 99.9162C73.9075 99.9162 71.8961 108.025 85.6207 117.17C85.6207 117.17 86.5905 103.677 85.2999 95.2761L89.9942 103.105L95.3927 104.132L92.7244 89.7035C92.7244 89.7035 106.051 91.7324 96.0458 69.177C96.0458 69.177 111.192 77.4447 130.972 75.9598C139.983 75.2258 146.099 70.8523 149.563 65.1021C153.785 58.158 154.029 49.2029 150.666 42.5476C144.5 30.4182 130.007 32.8229 129.762 41.6702C129.762 41.6702 118.92 34.8713 114.746 46.8845C114.746 46.8845 93.3919 44.825 85.0245 55.2607C85.0245 55.2607 77.1798 51.4531 76.1487 58.5821C76.1487 58.5821 65.8123 58.6817 70.0937 69.3191C70.0937 69.3191 60.5477 71.5683 68.9299 85.5101Z" fill="#606060"/>
<path d="M96.0459 69.1776C96.0459 69.1776 111.192 77.4452 130.972 75.9603C139.983 75.2264 146.1 70.8529 149.563 65.1026C144.084 67.097 133.007 70.2239 121.547 67.8534C121.547 67.8534 127.457 64.8841 127.431 62.1877C127.404 59.3834 114.204 70.5128 96.0459 69.1776Z" fill="#474747"/>
<path d="M73.9074 99.916C73.9074 99.916 71.896 108.025 85.6207 117.17C85.6207 117.17 86.5905 103.677 85.2999 95.2759L89.9941 103.105L95.3926 104.132L92.7243 89.7033C92.7243 89.7033 106.051 91.7322 96.0458 69.1768C96.2719 69.8219 99.2234 79.3935 94.521 82.1354C89.5997 84.9873 85.2634 80.0672 85.2634 80.0672C85.2634 80.0672 85.2583 90.9617 69.0398 85.5089C68.9299 85.5099 64.381 92.7807 73.9074 99.916Z" fill="#474747"/>
<path d="M144.587 50.8051C144.647 57.0607 142.76 66.6789 131.596 72.1796L144.587 50.8051Z" fill="#474747"/>
<path d="M143.87 44.8789C143.87 44.8789 144.213 46.278 144.454 48.4331L143.87 44.8789Z" fill="#474747"/>
<path d="M134.771 47.8792C134.771 47.8792 136.021 63.5076 118.372 69.3944L134.771 47.8792Z" fill="#474747"/>
<path d="M85.6315 72.6215C84.342 75.762 83.9448 80.1883 86.42 85.9892L85.6315 72.6215Z" fill="#474747"/>
<path d="M90.0829 66.6469C90.0829 66.6469 88.7716 67.5226 87.4685 69.2611L90.0829 66.6469Z" fill="#474747"/>
<path d="M71.658 83.3276C71.9983 84.4031 72.3396 85.5864 72.9009 86.7676L71.658 83.3276Z" fill="#474747"/>
<path d="M77.781 68.1671C77.781 68.1671 70.6692 72.0112 71.1891 80.3125L77.781 68.1671Z" fill="#474747"/>
<path d="M119.134 57.1985C114.887 61.554 107.238 66.5895 96.1077 64.2158L119.134 57.1985Z" fill="#474747"/>
<path d="M123.263 51.9814C123.263 51.9814 122.831 52.7407 121.963 54.0436L123.263 51.9814Z" fill="#474747"/>
<path d="M85.858 96.1339C85.858 96.1339 83.9357 90.6513 77.6709 91.0352C71.5162 91.4181 69.8296 110.419 89.8583 111.844L85.858 96.1339Z" fill="#FF8592"/>
<path d="M85.3953 105.092C85.3953 105.092 83.5558 96.8038 77.166 95.6787" stroke="#3A1451" stroke-miterlimit="10" stroke-linecap="round" stroke-linejoin="round"/>
<path d="M79.9943 103.849C79.9943 103.849 80.0814 101.475 81.8119 98.4381" stroke="#3A1451" stroke-miterlimit="10" stroke-linecap="round" stroke-linejoin="round"/>
</g>
</g>
<defs>
<filter id="filter0_d" x="43.6865" y="34.0938" width="126.037" height="165.214" filterUnits="userSpaceOnUse" color-interpolation-filters="sRGB">
<feFlood flood-opacity="0" result="BackgroundImageFix"/>
<feColorMatrix in="SourceAlpha" type="matrix" values="0 0 0 0 0 0 0 0 0 0 0 0 0 0 0 0 0 0 127 0"/>
<feOffset dy="4"/>
<feGaussianBlur stdDeviation="2"/>
<feColorMatrix type="matrix" values="0 0 0 0 0 0 0 0 0 0 0 0 0 0 0 0 0 0 0.25 0"/>
<feBlend mode="normal" in2="BackgroundImageFix" result="effect1_dropShadow"/>
<feBlend mode="normal" in="SourceGraphic" in2="effect1_dropShadow" result="shape"/>
</filter>
</defs>
</svg>
