<svg width="27" height="27" viewBox="0 0 27 27" fill="none" xmlns="http://www.w3.org/2000/svg">
<path d="M25.7812 20.2506H4.73339V3.22664C4.73496 2.96045 4.63035 2.70465 4.44273 2.51564L2.35407 0.294549C1.96106 -0.0981281 1.18776 -0.0982107 0.794746 0.294467C0.401728 0.687145 0.401894 1.46105 0.794912 1.85373L2.72884 3.63722V21.252C2.72884 21.8051 3.17754 22.2534 3.73112 22.2534H5.91608C5.34954 23.8131 6.15568 25.5363 7.71667 26.1023C9.27766 26.6684 11.0024 25.8629 11.5689 24.3033C11.8095 23.6411 11.8095 22.9155 11.5689 22.2534H18.9457C18.3792 23.813 19.1853 25.5362 20.7463 26.1023C22.3073 26.6683 24.032 25.8629 24.5985 24.3032C24.8391 23.6411 24.8391 22.9155 24.5985 22.2533H25.7812C26.3348 22.2533 26.7835 21.805 26.7835 21.2519C26.7835 20.6988 26.3348 20.2506 25.7812 20.2506Z" fill="#D6D3D3"/>
<path d="M23.665 17.9291V8.2338C23.672 7.70016 23.2773 7.24192 22.7372 7.15655L5.99268 4.45264V19.0064H22.5604C23.1705 19.0064 23.665 18.5241 23.665 17.9291Z" fill="#D6D3D3"/>
</svg>
