<svg width="26" height="26" viewBox="0 0 26 26" fill="none" xmlns="http://www.w3.org/2000/svg">
<path d="M26 12.9754C26.0132 20.138 20.172 25.995 13.0094 26C9.9159 26.0022 7.07435 24.9238 4.84134 23.1216C4.26069 22.653 4.21729 21.7827 4.74494 21.2551L5.33555 20.6645C5.78683 20.2132 6.50728 20.1638 7.00726 20.5605C8.65244 21.866 10.7345 22.6452 13 22.6452C18.3313 22.6452 22.6451 18.3305 22.6451 13C22.6451 7.6687 18.3305 3.35485 13 3.35485C10.4412 3.35485 8.11718 4.34919 6.39159 5.97225L9.05208 8.63275C9.58047 9.16114 9.20625 10.0645 8.45906 10.0645H0.838709C0.37548 10.0645 0 9.68906 0 9.22582V1.60545C0 0.858264 0.903394 0.484041 1.43178 1.01238L4.01983 3.60043C6.35369 1.37003 9.51683 0 13 0C20.1715 0 25.9867 5.80703 26 12.9754ZM16.5167 17.1053L17.0316 16.4432C17.4582 15.8947 17.3594 15.1043 16.8109 14.6778L14.6774 13.0183V7.5484C14.6774 6.85358 14.1142 6.29033 13.4193 6.29033H12.5806C11.8858 6.29033 11.3226 6.85358 11.3226 7.5484V14.6592L14.7513 17.3259C15.2997 17.7525 16.0901 17.6537 16.5167 17.1053Z" fill="currentColor"/>
</svg>
