<svg width="326" height="363" viewBox="0 0 326 363" fill="none" xmlns="http://www.w3.org/2000/svg">
<rect width="326" height="363" rx="7" fill="#F5F5F5"/>
<path d="M104.23 279H101.76L95.4219 268.912V279H92.9512V264.781H95.4219L101.779 274.908V264.781H104.23V279ZM106.477 273.619C106.477 272.584 106.682 271.653 107.092 270.826C107.502 269.993 108.078 269.355 108.82 268.912C109.562 268.463 110.415 268.238 111.379 268.238C112.805 268.238 113.96 268.697 114.846 269.615C115.738 270.533 116.219 271.751 116.291 273.268L116.301 273.824C116.301 274.866 116.099 275.797 115.695 276.617C115.298 277.438 114.725 278.072 113.977 278.521C113.234 278.971 112.375 279.195 111.398 279.195C109.908 279.195 108.713 278.701 107.814 277.711C106.923 276.715 106.477 275.39 106.477 273.736V273.619ZM108.85 273.824C108.85 274.911 109.074 275.764 109.523 276.383C109.973 276.995 110.598 277.301 111.398 277.301C112.199 277.301 112.821 276.988 113.264 276.363C113.713 275.738 113.938 274.824 113.938 273.619C113.938 272.551 113.706 271.705 113.244 271.08C112.788 270.455 112.167 270.143 111.379 270.143C110.604 270.143 109.989 270.452 109.533 271.07C109.077 271.682 108.85 272.6 108.85 273.824ZM125.49 268.434L125.559 269.654C126.34 268.71 127.365 268.238 128.635 268.238C130.835 268.238 131.955 269.498 131.994 272.018V279H129.621V272.154C129.621 271.484 129.475 270.989 129.182 270.67C128.895 270.344 128.423 270.182 127.766 270.182C126.809 270.182 126.096 270.615 125.627 271.48V279H123.254V268.434H125.49ZM133.977 273.619C133.977 272.584 134.182 271.653 134.592 270.826C135.002 269.993 135.578 269.355 136.32 268.912C137.062 268.463 137.915 268.238 138.879 268.238C140.305 268.238 141.46 268.697 142.346 269.615C143.238 270.533 143.719 271.751 143.791 273.268L143.801 273.824C143.801 274.866 143.599 275.797 143.195 276.617C142.798 277.438 142.225 278.072 141.477 278.521C140.734 278.971 139.875 279.195 138.898 279.195C137.408 279.195 136.213 278.701 135.314 277.711C134.423 276.715 133.977 275.39 133.977 273.736V273.619ZM136.35 273.824C136.35 274.911 136.574 275.764 137.023 276.383C137.473 276.995 138.098 277.301 138.898 277.301C139.699 277.301 140.321 276.988 140.764 276.363C141.213 275.738 141.438 274.824 141.438 273.619C141.438 272.551 141.206 271.705 140.744 271.08C140.288 270.455 139.667 270.143 138.879 270.143C138.104 270.143 137.489 270.452 137.033 271.07C136.577 271.682 136.35 272.6 136.35 273.824ZM148.781 265.865V268.434H150.646V270.191H148.781V276.09C148.781 276.493 148.859 276.786 149.016 276.969C149.178 277.145 149.465 277.232 149.875 277.232C150.148 277.232 150.425 277.2 150.705 277.135V278.971C150.165 279.12 149.644 279.195 149.143 279.195C147.32 279.195 146.408 278.189 146.408 276.178V270.191H144.67V268.434H146.408V265.865H148.781ZM154.992 279H152.619V268.434H154.992V279ZM152.473 265.689C152.473 265.325 152.587 265.022 152.814 264.781C153.049 264.54 153.381 264.42 153.811 264.42C154.24 264.42 154.572 264.54 154.807 264.781C155.041 265.022 155.158 265.325 155.158 265.689C155.158 266.048 155.041 266.347 154.807 266.588C154.572 266.822 154.24 266.939 153.811 266.939C153.381 266.939 153.049 266.822 152.814 266.588C152.587 266.347 152.473 266.048 152.473 265.689ZM158.42 279V270.191H156.809V268.434H158.42V267.467C158.42 266.295 158.745 265.39 159.396 264.752C160.048 264.114 160.959 263.795 162.131 263.795C162.548 263.795 162.99 263.854 163.459 263.971L163.4 265.826C163.14 265.774 162.837 265.748 162.492 265.748C161.359 265.748 160.793 266.331 160.793 267.496V268.434H162.941V270.191H160.793V279H158.42ZM167.199 279H164.826V268.434H167.199V279ZM164.68 265.689C164.68 265.325 164.794 265.022 165.021 264.781C165.256 264.54 165.588 264.42 166.018 264.42C166.447 264.42 166.779 264.54 167.014 264.781C167.248 265.022 167.365 265.325 167.365 265.689C167.365 266.048 167.248 266.347 167.014 266.588C166.779 266.822 166.447 266.939 166.018 266.939C165.588 266.939 165.256 266.822 165.021 266.588C164.794 266.347 164.68 266.048 164.68 265.689ZM174.133 277.301C174.725 277.301 175.217 277.128 175.607 276.783C175.998 276.438 176.206 276.012 176.232 275.504H178.469C178.443 276.161 178.238 276.777 177.854 277.35C177.469 277.916 176.949 278.365 176.291 278.697C175.633 279.029 174.924 279.195 174.162 279.195C172.684 279.195 171.512 278.717 170.646 277.76C169.781 276.803 169.348 275.481 169.348 273.795V273.551C169.348 271.943 169.777 270.657 170.637 269.693C171.496 268.723 172.668 268.238 174.152 268.238C175.409 268.238 176.431 268.606 177.219 269.342C178.013 270.071 178.43 271.031 178.469 272.223H176.232C176.206 271.617 175.998 271.119 175.607 270.729C175.223 270.338 174.732 270.143 174.133 270.143C173.365 270.143 172.772 270.423 172.355 270.982C171.939 271.536 171.727 272.379 171.721 273.512V273.893C171.721 275.038 171.926 275.895 172.336 276.461C172.753 277.021 173.352 277.301 174.133 277.301ZM186.574 279C186.47 278.798 186.379 278.469 186.301 278.014C185.546 278.801 184.621 279.195 183.527 279.195C182.466 279.195 181.6 278.893 180.93 278.287C180.259 277.682 179.924 276.933 179.924 276.041C179.924 274.915 180.34 274.052 181.174 273.453C182.014 272.848 183.212 272.545 184.768 272.545H186.223V271.852C186.223 271.305 186.07 270.868 185.764 270.543C185.458 270.211 184.992 270.045 184.367 270.045C183.827 270.045 183.384 270.182 183.039 270.455C182.694 270.722 182.521 271.064 182.521 271.48H180.148C180.148 270.901 180.34 270.361 180.725 269.859C181.109 269.352 181.63 268.954 182.287 268.668C182.951 268.382 183.69 268.238 184.504 268.238C185.741 268.238 186.727 268.551 187.463 269.176C188.199 269.794 188.576 270.667 188.596 271.793V276.559C188.596 277.509 188.729 278.268 188.996 278.834V279H186.574ZM183.967 277.291C184.436 277.291 184.875 277.177 185.285 276.949C185.702 276.721 186.014 276.415 186.223 276.031V274.039H184.943C184.064 274.039 183.404 274.192 182.961 274.498C182.518 274.804 182.297 275.237 182.297 275.797C182.297 276.253 182.447 276.617 182.746 276.891C183.052 277.158 183.459 277.291 183.967 277.291ZM194.055 265.865V268.434H195.92V270.191H194.055V276.09C194.055 276.493 194.133 276.786 194.289 276.969C194.452 277.145 194.738 277.232 195.148 277.232C195.422 277.232 195.699 277.2 195.979 277.135V278.971C195.438 279.12 194.917 279.195 194.416 279.195C192.593 279.195 191.682 278.189 191.682 276.178V270.191H189.943V268.434H191.682V265.865H194.055ZM200.266 279H197.893V268.434H200.266V279ZM197.746 265.689C197.746 265.325 197.86 265.022 198.088 264.781C198.322 264.54 198.654 264.42 199.084 264.42C199.514 264.42 199.846 264.54 200.08 264.781C200.314 265.022 200.432 265.325 200.432 265.689C200.432 266.048 200.314 266.347 200.08 266.588C199.846 266.822 199.514 266.939 199.084 266.939C198.654 266.939 198.322 266.822 198.088 266.588C197.86 266.347 197.746 266.048 197.746 265.689ZM202.414 273.619C202.414 272.584 202.619 271.653 203.029 270.826C203.439 269.993 204.016 269.355 204.758 268.912C205.5 268.463 206.353 268.238 207.316 268.238C208.742 268.238 209.898 268.697 210.783 269.615C211.675 270.533 212.157 271.751 212.229 273.268L212.238 273.824C212.238 274.866 212.036 275.797 211.633 276.617C211.236 277.438 210.663 278.072 209.914 278.521C209.172 278.971 208.312 279.195 207.336 279.195C205.845 279.195 204.65 278.701 203.752 277.711C202.86 276.715 202.414 275.39 202.414 273.736V273.619ZM204.787 273.824C204.787 274.911 205.012 275.764 205.461 276.383C205.91 276.995 206.535 277.301 207.336 277.301C208.137 277.301 208.758 276.988 209.201 276.363C209.65 275.738 209.875 274.824 209.875 273.619C209.875 272.551 209.644 271.705 209.182 271.08C208.726 270.455 208.104 270.143 207.316 270.143C206.542 270.143 205.926 270.452 205.471 271.07C205.015 271.682 204.787 272.6 204.787 273.824ZM216.447 268.434L216.516 269.654C217.297 268.71 218.322 268.238 219.592 268.238C221.792 268.238 222.912 269.498 222.951 272.018V279H220.578V272.154C220.578 271.484 220.432 270.989 220.139 270.67C219.852 270.344 219.38 270.182 218.723 270.182C217.766 270.182 217.053 270.615 216.584 271.48V279H214.211V268.434H216.447ZM231.301 276.129C231.301 275.706 231.125 275.383 230.773 275.162C230.428 274.941 229.852 274.745 229.045 274.576C228.238 274.407 227.564 274.192 227.023 273.932C225.839 273.359 225.246 272.529 225.246 271.441C225.246 270.53 225.63 269.768 226.398 269.156C227.167 268.544 228.143 268.238 229.328 268.238C230.591 268.238 231.61 268.551 232.385 269.176C233.166 269.801 233.557 270.611 233.557 271.607H231.184C231.184 271.152 231.014 270.774 230.676 270.475C230.337 270.169 229.888 270.016 229.328 270.016C228.807 270.016 228.381 270.136 228.049 270.377C227.723 270.618 227.561 270.94 227.561 271.344C227.561 271.708 227.714 271.992 228.02 272.193C228.326 272.395 228.944 272.6 229.875 272.809C230.806 273.01 231.535 273.255 232.062 273.541C232.596 273.821 232.99 274.16 233.244 274.557C233.505 274.954 233.635 275.436 233.635 276.002C233.635 276.952 233.241 277.724 232.453 278.316C231.665 278.902 230.633 279.195 229.357 279.195C228.492 279.195 227.72 279.039 227.043 278.727C226.366 278.414 225.839 277.984 225.461 277.438C225.083 276.891 224.895 276.301 224.895 275.67H227.199C227.232 276.23 227.443 276.663 227.834 276.969C228.225 277.268 228.742 277.418 229.387 277.418C230.012 277.418 230.487 277.301 230.812 277.066C231.138 276.826 231.301 276.513 231.301 276.129ZM132.277 291.865V294.434H134.143V296.191H132.277V302.09C132.277 302.493 132.355 302.786 132.512 302.969C132.674 303.145 132.961 303.232 133.371 303.232C133.645 303.232 133.921 303.2 134.201 303.135V304.971C133.661 305.12 133.14 305.195 132.639 305.195C130.816 305.195 129.904 304.189 129.904 302.178V296.191H128.166V294.434H129.904V291.865H132.277ZM135.227 299.619C135.227 298.584 135.432 297.653 135.842 296.826C136.252 295.993 136.828 295.355 137.57 294.912C138.312 294.463 139.165 294.238 140.129 294.238C141.555 294.238 142.71 294.697 143.596 295.615C144.488 296.533 144.969 297.751 145.041 299.268L145.051 299.824C145.051 300.866 144.849 301.797 144.445 302.617C144.048 303.438 143.475 304.072 142.727 304.521C141.984 304.971 141.125 305.195 140.148 305.195C138.658 305.195 137.463 304.701 136.564 303.711C135.673 302.715 135.227 301.39 135.227 299.736V299.619ZM137.6 299.824C137.6 300.911 137.824 301.764 138.273 302.383C138.723 302.995 139.348 303.301 140.148 303.301C140.949 303.301 141.571 302.988 142.014 302.363C142.463 301.738 142.688 300.824 142.688 299.619C142.688 298.551 142.456 297.705 141.994 297.08C141.538 296.455 140.917 296.143 140.129 296.143C139.354 296.143 138.739 296.452 138.283 297.07C137.827 297.682 137.6 298.6 137.6 299.824ZM157.961 302.129C157.961 301.706 157.785 301.383 157.434 301.162C157.089 300.941 156.512 300.745 155.705 300.576C154.898 300.407 154.224 300.192 153.684 299.932C152.499 299.359 151.906 298.529 151.906 297.441C151.906 296.53 152.29 295.768 153.059 295.156C153.827 294.544 154.803 294.238 155.988 294.238C157.251 294.238 158.27 294.551 159.045 295.176C159.826 295.801 160.217 296.611 160.217 297.607H157.844C157.844 297.152 157.674 296.774 157.336 296.475C156.997 296.169 156.548 296.016 155.988 296.016C155.467 296.016 155.041 296.136 154.709 296.377C154.383 296.618 154.221 296.94 154.221 297.344C154.221 297.708 154.374 297.992 154.68 298.193C154.986 298.395 155.604 298.6 156.535 298.809C157.466 299.01 158.195 299.255 158.723 299.541C159.257 299.821 159.65 300.16 159.904 300.557C160.165 300.954 160.295 301.436 160.295 302.002C160.295 302.952 159.901 303.724 159.113 304.316C158.326 304.902 157.294 305.195 156.018 305.195C155.152 305.195 154.38 305.039 153.703 304.727C153.026 304.414 152.499 303.984 152.121 303.438C151.743 302.891 151.555 302.301 151.555 301.67H153.859C153.892 302.23 154.104 302.663 154.494 302.969C154.885 303.268 155.402 303.418 156.047 303.418C156.672 303.418 157.147 303.301 157.473 303.066C157.798 302.826 157.961 302.513 157.961 302.129ZM164.709 295.586C165.484 294.688 166.464 294.238 167.648 294.238C169.901 294.238 171.044 295.524 171.076 298.096V305H168.703V298.184C168.703 297.454 168.544 296.94 168.225 296.641C167.912 296.335 167.45 296.182 166.838 296.182C165.887 296.182 165.178 296.605 164.709 297.451V305H162.336V290H164.709V295.586ZM173.039 299.619C173.039 298.584 173.244 297.653 173.654 296.826C174.064 295.993 174.641 295.355 175.383 294.912C176.125 294.463 176.978 294.238 177.941 294.238C179.367 294.238 180.523 294.697 181.408 295.615C182.3 296.533 182.782 297.751 182.854 299.268L182.863 299.824C182.863 300.866 182.661 301.797 182.258 302.617C181.861 303.438 181.288 304.072 180.539 304.521C179.797 304.971 178.938 305.195 177.961 305.195C176.47 305.195 175.275 304.701 174.377 303.711C173.485 302.715 173.039 301.39 173.039 299.736V299.619ZM175.412 299.824C175.412 300.911 175.637 301.764 176.086 302.383C176.535 302.995 177.16 303.301 177.961 303.301C178.762 303.301 179.383 302.988 179.826 302.363C180.275 301.738 180.5 300.824 180.5 299.619C180.5 298.551 180.269 297.705 179.807 297.08C179.351 296.455 178.729 296.143 177.941 296.143C177.167 296.143 176.551 296.452 176.096 297.07C175.64 297.682 175.412 298.6 175.412 299.824ZM194.152 301.729L195.832 294.434H198.146L195.266 305H193.312L191.047 297.744L188.82 305H186.867L183.977 294.434H186.291L188 301.65L190.168 294.434H191.955L194.152 301.729ZM200.002 302.5C200.445 302.5 200.786 302.627 201.027 302.881C201.268 303.128 201.389 303.441 201.389 303.818C201.389 304.189 201.268 304.499 201.027 304.746C200.786 304.987 200.445 305.107 200.002 305.107C199.579 305.107 199.243 304.987 198.996 304.746C198.749 304.505 198.625 304.196 198.625 303.818C198.625 303.441 198.745 303.128 198.986 302.881C199.227 302.627 199.566 302.5 200.002 302.5Z" fill="black"/>
<path d="M162.564 213H162.436C151.167 213 142 204.213 142 193.412V188.835C142 186.165 144.259 184 147.044 184H177.956C180.741 184 183 186.165 183 188.835V193.412C183 204.213 173.832 213 162.564 213Z" fill="#95B04F"/>
<path d="M178.079 184H163V213H163.063C174.056 213 183 204.213 183 193.412V188.835C183 186.164 180.797 184 178.079 184Z" fill="#87A53A"/>
<path d="M172.165 77H152.835C150.165 77 148 74.8508 148 72.1998V61.3953C148 53.4575 154.505 47 162.5 47C170.495 47 177 53.4578 177 61.3953V72.1998C177 74.8508 174.836 77 172.165 77Z" fill="#95B04F"/>
<path d="M172.332 77C174.91 77 177 74.8508 177 72.1998V61.3953C177 53.4575 170.72 47 163 47V77H172.332Z" fill="#87A53A"/>
<path d="M214.324 193H110.677C106.444 193 103 189.593 103 185.405V178.487C103 170.91 105.82 163.634 110.94 157.999C114.444 154.143 116.373 149.164 116.373 143.98V112.634C116.373 87.4713 137.066 67 162.5 67C187.934 67 208.626 87.4713 208.626 112.634V143.98C208.626 149.164 210.556 154.143 214.059 157.998C219.18 163.633 222 170.91 222 178.487V185.405C222 189.593 218.557 193 214.324 193Z" fill="#FFCF2C"/>
<path d="M214.388 193C218.585 193 222 189.593 222 185.405V178.487C222 170.91 219.204 163.634 214.126 157.999C210.652 154.143 208.739 149.164 208.739 143.98V112.634C208.739 87.4713 188.221 67 163 67V193H214.388Z" fill="#FFC12E"/>
<path d="M103 178.597V185.462C103 189.618 106.444 193 110.677 193H214.323C218.556 193 222 189.618 222 185.462V178.597C222 175.303 221.459 172.067 220.421 169H104.579C103.541 172.067 103 175.303 103 178.597Z" fill="#FFF566"/>
<path d="M163 169V193H214.388C218.585 193 222 189.618 222 185.462V178.597C222 175.303 221.463 172.067 220.434 169H163V169Z" fill="#FFE645"/>
<path d="M84.7191 101C84.3895 101 84.0551 100.964 83.7198 100.889C81.1752 100.319 79.5578 97.7173 80.1071 95.0777C83.8817 76.9419 93.5144 60.2821 107.231 48.1667C109.213 46.416 112.188 46.664 113.875 48.7195C115.563 50.7756 115.324 53.8611 113.342 55.6118C101.193 66.3432 92.6619 81.092 89.3216 97.1413C88.845 99.4331 86.8911 101 84.7191 101Z" fill="#FF8B6E"/>
<path d="M241.146 101C238.912 101 236.903 99.4335 236.412 97.1417C232.976 81.0922 224.202 66.3433 211.705 55.6122C209.666 53.8615 209.421 50.7757 211.157 48.7199C212.893 46.6637 215.952 46.416 217.991 48.167C232.1 60.2819 242.007 76.9421 245.89 95.078C246.455 97.7176 244.791 100.319 242.174 100.889C241.829 100.964 241.485 101 241.146 101Z" fill="#87A53A"/>
<path d="M102.996 107C102.69 107 102.38 106.972 102.069 106.915C99.3605 106.418 97.5778 103.871 98.0867 101.227C100.825 86.9976 108.506 73.8534 119.712 64.2161C121.78 62.4372 124.933 62.633 126.755 64.652C128.576 66.6713 128.376 69.7498 126.308 71.5281C116.764 79.7362 110.224 90.9225 107.894 103.027C107.444 105.368 105.349 107 102.996 107Z" fill="#FF8B6E"/>
<path d="M222.004 107C219.65 107 217.556 105.368 217.105 103.027C214.775 90.9229 208.236 79.7362 198.692 71.5283C196.624 69.7496 196.424 66.6711 198.245 64.6518C200.067 62.6328 203.22 62.4376 205.288 64.2159C216.494 73.8533 224.174 86.9973 226.913 101.227C227.422 103.871 225.639 106.418 222.931 106.915C222.62 106.972 222.31 107 222.004 107Z" fill="#87A53A"/>
<circle cx="221.5" cy="184.5" r="19.5" fill="#C71712"/>
<path d="M226.951 186.189C226.951 188.11 226.518 189.591 225.652 190.633C224.793 191.674 223.579 192.195 222.01 192.195C220.428 192.195 219.204 191.671 218.338 190.623C217.472 189.575 217.039 188.097 217.039 186.189V183.592C217.039 181.671 217.469 180.19 218.328 179.148C219.194 178.107 220.415 177.586 221.99 177.586C223.566 177.586 224.786 178.11 225.652 179.158C226.518 180.206 226.951 181.688 226.951 183.602V186.189ZM223.66 183.172C223.66 182.15 223.527 181.388 223.26 180.887C222.993 180.379 222.57 180.125 221.99 180.125C221.424 180.125 221.01 180.359 220.75 180.828C220.496 181.297 220.359 182.007 220.34 182.957V186.59C220.34 187.651 220.473 188.429 220.74 188.924C221.007 189.412 221.43 189.656 222.01 189.656C222.57 189.656 222.983 189.419 223.25 188.943C223.517 188.462 223.654 187.71 223.66 186.688V183.172Z" fill="white"/>
</svg>
