<svg width="32" height="31" viewBox="0 0 32 31" fill="none" xmlns="http://www.w3.org/2000/svg">
<path d="M30.9655 29.1485L30.9655 23.3762C30.9655 22.8449 30.4388 22.4141 29.7895 22.4141C29.1401 22.4141 28.6135 22.8449 28.6135 23.3762L28.6135 28.1863L22.7345 28.1863C22.0852 28.1863 21.5586 28.6172 21.5586 29.1485C21.5586 29.6797 22.0852 30.1106 22.7345 30.1106L29.7895 30.1106C30.4388 30.1106 30.9655 29.6797 30.9655 29.1485Z" fill="white" stroke="white"/>
<path d="M1.03442 29.1485L1.03442 23.3762C1.03442 22.8449 1.56105 22.4141 2.21039 22.4141C2.85974 22.4141 3.38636 22.8449 3.38636 23.3762L3.38636 28.1863L9.26535 28.1863C9.9147 28.1863 10.4413 28.6172 10.4413 29.1485C10.4413 29.6797 9.9147 30.1106 9.26535 30.1106L2.21039 30.1106C1.56105 30.1106 1.03442 29.6797 1.03442 29.1485Z" fill="white" stroke="white"/>
<path d="M1.03442 1.99705L1.03442 7.76929C1.03442 8.30057 1.56105 8.73145 2.21039 8.73145C2.85974 8.73145 3.38636 8.30057 3.38636 7.76929L3.38636 2.95921L9.26535 2.95921C9.9147 2.95921 10.4413 2.52833 10.4413 1.99705C10.4413 1.46577 9.9147 1.03489 9.26535 1.03489L2.21039 1.03489C1.56105 1.03489 1.03442 1.46577 1.03442 1.99705Z" fill="white" stroke="white"/>
<path d="M30.9655 1.99705V7.76929C30.9655 8.30057 30.4388 8.73145 29.7895 8.73145C29.1401 8.73145 28.6135 8.30057 28.6135 7.76929V2.95921L22.7345 2.95921C22.0852 2.95921 21.5586 2.52833 21.5586 1.99705C21.5586 1.46577 22.0852 1.03489 22.7345 1.03489L29.7895 1.03489C30.4388 1.03489 30.9655 1.46577 30.9655 1.99705Z" fill="white" stroke="white"/>
<circle cx="16.5215" cy="15.6667" r="4.48456" stroke="white" stroke-width="3"/>
</svg>
