<svg width="39" height="31" viewBox="0 0 39 31" fill="none" xmlns="http://www.w3.org/2000/svg">
<path d="M6.78132 0H0.968862C0.433877 0 0 0.433877 0 0.968862V6.78132C0 7.31631 0.433877 7.75019 0.968862 7.75019C1.50385 7.75019 1.93737 7.31631 1.93737 6.78132V1.93772H6.78132C7.31631 1.93772 7.74983 1.50385 7.74983 0.968862C7.74983 0.433877 7.31631 0 6.78132 0Z" fill="white"/>
<path d="M6.78132 29.0625H1.93737V24.2189C1.93737 23.6839 1.50385 23.25 0.968862 23.25C0.433877 23.25 0 23.6839 0 24.2189V30.0313C0 30.5663 0.433877 31.0002 0.968862 31.0002H6.78132C7.31631 31.0002 7.74983 30.5663 7.74983 30.0313C7.74983 29.4963 7.31631 29.0625 6.78132 29.0625Z" fill="white"/>
<path d="M37.7813 0H31.9689C31.4339 0 31 0.433877 31 0.968862C31 1.50385 31.4339 1.93772 31.9689 1.93772H36.8125V6.78132C36.8125 7.31631 37.2463 7.75019 37.7813 7.75019C38.3163 7.75019 38.7502 7.31631 38.7502 6.78132V0.968862C38.7502 0.433877 38.3163 0 37.7813 0Z" fill="white"/>
<path d="M37.7813 23.25C37.2463 23.25 36.8125 23.6839 36.8125 24.2189V29.0625H31.9689C31.4339 29.0625 31 29.4963 31 30.0313C31 30.5663 31.4339 31.0002 31.9689 31.0002H37.7813C38.3163 31.0002 38.7502 30.5663 38.7502 30.0313V24.2189C38.7502 23.6839 38.3163 23.25 37.7813 23.25Z" fill="white"/>
<path d="M8.60011 5.8125C8.26874 5.8125 8 6.24638 8 6.78136V24.2187C8 24.7537 8.26874 25.1876 8.60011 25.1876C8.93148 25.1876 9.2 24.7537 9.2 24.2187V6.78136C9.2 6.24638 8.93148 5.8125 8.60011 5.8125Z" fill="white"/>
<path d="M11.9501 5.8125H13.4503C13.8645 5.8125 14.2002 6.24638 14.2002 6.78136V24.2187C14.2002 24.7537 13.8645 25.1876 13.4503 25.1876H11.9501C11.5358 25.1876 11.2002 24.7537 11.2002 24.2187V6.78136C11.2002 6.24638 11.5358 5.8125 11.9501 5.8125Z" fill="white"/>
<path d="M16.8001 5.8125C16.4687 5.8125 16.2002 6.24638 16.2002 6.78136V24.2187C16.2002 24.7537 16.4687 25.1876 16.8001 25.1876C17.1315 25.1876 17.4002 24.7537 17.4002 24.2187V6.78136C17.4002 6.24638 17.1315 5.8125 16.8001 5.8125Z" fill="white"/>
<path d="M20.1505 5.8125H21.6503C22.0645 5.8125 22.4004 6.24638 22.4004 6.78136V24.2187C22.4004 24.7537 22.0645 25.1876 21.6503 25.1876H20.1505C19.7363 25.1876 19.4004 24.7537 19.4004 24.2187V6.78136C19.4004 6.24638 19.7363 5.8125 20.1505 5.8125Z" fill="white"/>
<path d="M25.0004 5.8125C24.6691 5.8125 24.4004 6.24638 24.4004 6.78136V24.2187C24.4004 24.7537 24.6691 25.1876 25.0004 25.1876C25.3317 25.1876 25.6004 24.7537 25.6004 24.2187V6.78136C25.6004 6.24638 25.3317 5.8125 25.0004 5.8125Z" fill="white"/>
<path d="M28.3507 5.8125H29.8505C30.2647 5.8125 30.6006 6.24638 30.6006 6.78136V24.2187C30.6006 24.7537 30.2647 25.1876 29.8505 25.1876H28.3507C27.9365 25.1876 27.6006 24.7537 27.6006 24.2187V6.78136C27.6006 6.24638 27.9365 5.8125 28.3507 5.8125Z" fill="white"/>
</svg>
