<svg width="23" height="26" viewBox="0 0 23 26" fill="none" xmlns="http://www.w3.org/2000/svg">
<path fill-rule="evenodd" clip-rule="evenodd" d="M11.2614 0C9.55469 0 7.91792 0.677971 6.71113 1.88477C5.50433 3.09156 4.82636 4.72833 4.82636 6.435V8.04375H3.21761C2.82157 8.04372 2.43943 8.18979 2.14437 8.45397C1.84931 8.71816 1.66208 9.08189 1.61851 9.47554L0.00976273 23.9543C-0.0151197 24.1791 0.00769146 24.4067 0.0767074 24.6221C0.145723 24.8375 0.259393 25.0359 0.410295 25.2045C0.561198 25.373 0.745941 25.5078 0.952466 25.6C1.15899 25.6923 1.38266 25.74 1.60886 25.74H20.9139C21.1401 25.74 21.3637 25.6923 21.5703 25.6C21.7768 25.5078 21.9615 25.373 22.1124 25.2045C22.2633 25.0359 22.377 24.8375 22.446 24.6221C22.515 24.4067 22.5378 24.1791 22.513 23.9543L20.9042 9.47554C20.8606 9.08189 20.6734 8.71816 20.3784 8.45397C20.0833 8.18979 19.7012 8.04372 19.3051 8.04375H17.6964V6.435C17.6964 4.72833 17.0184 3.09156 15.8116 1.88477C14.6048 0.677971 12.968 0 11.2614 0ZM14.4789 8.04375V6.435C14.4789 5.58167 14.1399 4.76328 13.5365 4.15988C12.9331 3.55649 12.1147 3.2175 11.2614 3.2175C10.408 3.2175 9.58964 3.55649 8.98625 4.15988C8.38285 4.76328 8.04386 5.58167 8.04386 6.435V8.04375H14.4789ZM4.82636 12.87C4.82636 12.4433 4.99585 12.0341 5.29755 11.7324C5.59925 11.4307 6.00844 11.2612 6.43511 11.2612C6.86178 11.2612 7.27097 11.4307 7.57267 11.7324C7.87437 12.0341 8.04386 12.4433 8.04386 12.87C8.04386 13.2967 7.87437 13.7059 7.57267 14.0076C7.27097 14.3093 6.86178 14.4787 6.43511 14.4787C6.00844 14.4787 5.59925 14.3093 5.29755 14.0076C4.99585 13.7059 4.82636 13.2967 4.82636 12.87ZM16.0876 11.2612C15.6609 11.2612 15.2518 11.4307 14.9501 11.7324C14.6484 12.0341 14.4789 12.4433 14.4789 12.87C14.4789 13.2967 14.6484 13.7059 14.9501 14.0076C15.2518 14.3093 15.6609 14.4787 16.0876 14.4787C16.5143 14.4787 16.9235 14.3093 17.2252 14.0076C17.5269 13.7059 17.6964 13.2967 17.6964 12.87C17.6964 12.4433 17.5269 12.0341 17.2252 11.7324C16.9235 11.4307 16.5143 11.2612 16.0876 11.2612Z" fill="currentColor"/>
</svg>
