<svg width="414" height="748" viewBox="0 0 414 748" fill="none"
    xmlns="http://www.w3.org/2000/svg">
    <circle cx="61" cy="32" r="32" fill="#F3F1F1"/>
    <path d="M77.7541 54.0099C76.2869 52.8617 73.6234 50.956 70.7229 49.5475C67.8224 48.1507 66.1182 44.872 66.5809 41.5696C66.5809 41.5222 66.5922 41.4749 66.6035 41.4157C66.6035 41.4157 73.2058 36.7284 72.2917 32.1595C72.2917 32.1595 72.4948 32.1713 72.7995 32.1476C75.7113 31.8635 75.8919 27.3183 73.014 26.833C72.9914 26.833 72.9575 26.8211 72.935 26.8211L72.8447 26.324C73.725 23.0926 75.8693 13.3037 69.3799 14.2506C69.3799 14.2506 64.7187 6.1662 54.8661 10.0605C45.0021 13.9429 47.5753 23.211 47.5753 23.211L48.7942 26.904C46.142 27.5905 46.3903 31.8872 49.2118 32.1595C49.5165 32.1831 49.7309 32.1713 49.7309 32.1713C48.8055 36.7402 55.4078 41.4275 55.4078 41.4275C55.4191 41.4867 55.4191 41.5341 55.4304 41.5814C55.8818 44.8838 54.1776 48.1626 51.2884 49.5593C48.3766 50.9679 45.7244 52.8854 44.2572 54.0217C43.3769 54.6964 42.5982 55.5131 42 56.4719C47.0787 61.1474 53.7262 64 61.0056 64C68.2964 64 74.9439 61.1474 80 56.4482C79.4131 55.5013 78.6344 54.6846 77.7541 54.0099Z" fill="#DBDEE0"/>
    <g filter="url(#filter0_d)">
        <path d="M0 669H414V748H0V669Z" fill="white"/>
    </g>
    <path d="M43.5454 727.566V731H41.9395V721.758H45.4751C46.5076 721.758 47.3265 722.027 47.9316 722.564C48.541 723.101 48.8457 723.812 48.8457 724.697C48.8457 725.602 48.5474 726.307 47.9507 726.811C47.3582 727.314 46.5267 727.566 45.4561 727.566H43.5454ZM43.5454 726.277H45.4751C46.0464 726.277 46.4823 726.144 46.7827 725.877C47.0832 725.607 47.2334 725.217 47.2334 724.709C47.2334 724.21 47.0811 723.812 46.7764 723.516C46.4717 723.216 46.0527 723.061 45.5195 723.053H43.5454V726.277ZM51.7466 731H50.2041V724.132H51.7466V731ZM50.1089 722.348C50.1089 722.111 50.1829 721.914 50.3311 721.758C50.4834 721.601 50.6992 721.523 50.9785 721.523C51.2578 721.523 51.4736 721.601 51.626 721.758C51.7783 721.914 51.8545 722.111 51.8545 722.348C51.8545 722.581 51.7783 722.776 51.626 722.932C51.4736 723.084 51.2578 723.161 50.9785 723.161C50.6992 723.161 50.4834 723.084 50.3311 722.932C50.1829 722.776 50.1089 722.581 50.1089 722.348ZM56.2534 729.896C56.6385 729.896 56.958 729.783 57.2119 729.559C57.4658 729.335 57.6012 729.058 57.6182 728.728H59.0718C59.0549 729.155 58.9215 729.555 58.6719 729.927C58.4222 730.295 58.0837 730.587 57.6562 730.803C57.2288 731.019 56.7676 731.127 56.2725 731.127C55.3118 731.127 54.5501 730.816 53.9873 730.194C53.4245 729.572 53.1431 728.713 53.1431 727.617V727.458C53.1431 726.413 53.4224 725.577 53.981 724.951C54.5396 724.32 55.3013 724.005 56.2661 724.005C57.0828 724.005 57.7472 724.244 58.2593 724.722C58.7756 725.196 59.0464 725.82 59.0718 726.595H57.6182C57.6012 726.201 57.4658 725.877 57.2119 725.624C56.9622 725.37 56.6427 725.243 56.2534 725.243C55.7541 725.243 55.369 725.425 55.0981 725.789C54.8273 726.148 54.6898 726.696 54.6855 727.433V727.68C54.6855 728.425 54.8188 728.981 55.0854 729.35C55.3563 729.714 55.7456 729.896 56.2534 729.896ZM62.4678 728.055L61.7822 728.759V731H60.2397V721.25H61.7822V726.874L62.2646 726.271L64.1626 724.132H66.0161L63.4644 726.995L66.2891 731H64.5054L62.4678 728.055ZM71.6973 724.132L71.7417 724.925C72.2495 724.312 72.916 724.005 73.7412 724.005C75.1715 724.005 75.8994 724.824 75.9248 726.461V731H74.3823V726.55C74.3823 726.114 74.2871 725.793 74.0967 725.585C73.9105 725.374 73.6037 725.268 73.1763 725.268C72.5542 725.268 72.0908 725.549 71.7861 726.112V731H70.2437V724.132H71.6973ZM77.2134 727.502C77.2134 726.83 77.3467 726.224 77.6133 725.687C77.8799 725.145 78.2544 724.731 78.7368 724.443C79.2192 724.151 79.7736 724.005 80.3999 724.005C81.3267 724.005 82.0778 724.303 82.6533 724.9C83.2331 725.497 83.5462 726.288 83.5928 727.274L83.5991 727.636C83.5991 728.313 83.4679 728.918 83.2056 729.451C82.9474 729.984 82.575 730.397 82.0884 730.689C81.606 730.981 81.0474 731.127 80.4126 731.127C79.4435 731.127 78.667 730.805 78.083 730.162C77.5033 729.515 77.2134 728.653 77.2134 727.579V727.502ZM78.7559 727.636C78.7559 728.342 78.9019 728.897 79.1938 729.299C79.4858 729.697 79.8921 729.896 80.4126 729.896C80.9331 729.896 81.3372 729.692 81.625 729.286C81.917 728.88 82.063 728.285 82.063 727.502C82.063 726.808 81.9128 726.258 81.6123 725.852C81.3161 725.446 80.9119 725.243 80.3999 725.243C79.8963 725.243 79.4964 725.444 79.2002 725.846C78.904 726.243 78.7559 726.84 78.7559 727.636ZM90.937 728.874L92.0288 724.132H93.5332L91.6606 731H90.3911L88.9185 726.284L87.4712 731H86.2017L84.3228 724.132H85.8271L86.938 728.823L88.3472 724.132H89.5088L90.937 728.874Z" fill="#D6D3D3"/>
    <path d="M137.073 731V721.758H139.682C140.486 721.758 141.197 721.936 141.814 722.291C142.432 722.646 142.908 723.152 143.243 723.808C143.581 724.464 143.753 725.217 143.757 726.068V726.658C143.757 727.53 143.588 728.294 143.249 728.95C142.915 729.606 142.434 730.109 141.808 730.46C141.186 730.812 140.46 730.992 139.631 731H137.073ZM138.292 722.761V730.003H139.574C140.513 730.003 141.243 729.711 141.764 729.127C142.288 728.543 142.551 727.712 142.551 726.633V726.093C142.551 725.044 142.303 724.229 141.808 723.649C141.317 723.065 140.619 722.769 139.713 722.761H138.292ZM148.74 725.186C148.562 725.156 148.369 725.141 148.162 725.141C147.392 725.141 146.869 725.469 146.594 726.125V731H145.42V724.132H146.562L146.582 724.925C146.967 724.312 147.513 724.005 148.219 724.005C148.448 724.005 148.621 724.035 148.74 724.094V725.186ZM149.387 727.502C149.387 726.83 149.518 726.224 149.781 725.687C150.047 725.15 150.416 724.735 150.885 724.443C151.359 724.151 151.899 724.005 152.504 724.005C153.439 724.005 154.194 724.329 154.77 724.976C155.35 725.624 155.64 726.485 155.64 727.56V727.642C155.64 728.311 155.511 728.912 155.252 729.445C154.999 729.974 154.632 730.386 154.154 730.683C153.68 730.979 153.134 731.127 152.517 731.127C151.586 731.127 150.83 730.803 150.25 730.156C149.675 729.508 149.387 728.651 149.387 727.585V727.502ZM150.568 727.642C150.568 728.404 150.743 729.015 151.095 729.477C151.45 729.938 151.924 730.168 152.517 730.168C153.113 730.168 153.587 729.936 153.938 729.47C154.29 729 154.465 728.345 154.465 727.502C154.465 726.749 154.285 726.14 153.926 725.674C153.57 725.205 153.096 724.97 152.504 724.97C151.924 724.97 151.457 725.2 151.101 725.662C150.746 726.123 150.568 726.783 150.568 727.642ZM162.914 727.642C162.914 728.687 162.675 729.529 162.197 730.168C161.719 730.807 161.071 731.127 160.254 731.127C159.421 731.127 158.765 730.862 158.287 730.333V733.641H157.112V724.132H158.185L158.242 724.894C158.72 724.301 159.385 724.005 160.235 724.005C161.061 724.005 161.712 724.316 162.19 724.938C162.673 725.56 162.914 726.425 162.914 727.534V727.642ZM161.74 727.509C161.74 726.734 161.575 726.123 161.245 725.674C160.915 725.226 160.462 725.001 159.886 725.001C159.175 725.001 158.642 725.317 158.287 725.947V729.229C158.638 729.855 159.175 730.168 159.899 730.168C160.462 730.168 160.908 729.946 161.238 729.502C161.573 729.053 161.74 728.389 161.74 727.509ZM168.748 724.132L168.786 724.995C169.31 724.335 169.996 724.005 170.842 724.005C172.294 724.005 173.026 724.824 173.039 726.461V731H171.864V726.455C171.86 725.96 171.746 725.594 171.521 725.357C171.301 725.12 170.957 725.001 170.487 725.001C170.106 725.001 169.772 725.103 169.484 725.306C169.196 725.509 168.972 725.776 168.811 726.106V731H167.637V724.132H168.748ZM174.499 727.502C174.499 726.83 174.63 726.224 174.892 725.687C175.159 725.15 175.527 724.735 175.997 724.443C176.471 724.151 177.01 724.005 177.615 724.005C178.55 724.005 179.306 724.329 179.881 724.976C180.461 725.624 180.751 726.485 180.751 727.56V727.642C180.751 728.311 180.622 728.912 180.364 729.445C180.11 729.974 179.744 730.386 179.266 730.683C178.792 730.979 178.246 731.127 177.628 731.127C176.697 731.127 175.942 730.803 175.362 730.156C174.786 729.508 174.499 728.651 174.499 727.585V727.502ZM175.679 727.642C175.679 728.404 175.855 729.015 176.206 729.477C176.562 729.938 177.035 730.168 177.628 730.168C178.225 730.168 178.699 729.936 179.05 729.47C179.401 729 179.577 728.345 179.577 727.502C179.577 726.749 179.397 726.14 179.037 725.674C178.682 725.205 178.208 724.97 177.615 724.97C177.035 724.97 176.568 725.2 176.212 725.662C175.857 726.123 175.679 726.783 175.679 727.642ZM188.305 729.381L189.625 724.132H190.799L188.8 731H187.848L186.178 725.795L184.553 731H183.601L181.608 724.132H182.776L184.128 729.273L185.728 724.132H186.673L188.305 729.381Z" fill="#C71712"/>
    <path d="M136.939 731V721.758H139.669C140.486 721.758 141.209 721.94 141.84 722.304C142.475 722.668 142.965 723.184 143.312 723.853C143.66 724.521 143.833 725.287 143.833 726.15V726.614C143.833 727.49 143.657 728.26 143.306 728.924C142.959 729.589 142.462 730.101 141.814 730.46C141.171 730.82 140.433 731 139.599 731H136.939ZM138.545 723.053V729.718H139.593C140.435 729.718 141.08 729.455 141.529 728.931C141.982 728.402 142.212 727.644 142.221 726.658V726.144C142.221 725.141 142.003 724.375 141.567 723.846C141.131 723.317 140.498 723.053 139.669 723.053H138.545ZM148.879 725.541C148.676 725.507 148.467 725.49 148.251 725.49C147.544 725.49 147.068 725.761 146.823 726.303V731H145.28V724.132H146.753L146.791 724.9C147.163 724.303 147.68 724.005 148.34 724.005C148.56 724.005 148.742 724.035 148.886 724.094L148.879 725.541ZM149.336 727.502C149.336 726.83 149.47 726.224 149.736 725.687C150.003 725.145 150.377 724.731 150.86 724.443C151.342 724.151 151.897 724.005 152.523 724.005C153.45 724.005 154.201 724.303 154.776 724.9C155.356 725.497 155.669 726.288 155.716 727.274L155.722 727.636C155.722 728.313 155.591 728.918 155.329 729.451C155.07 729.984 154.698 730.397 154.211 730.689C153.729 730.981 153.17 731.127 152.536 731.127C151.567 731.127 150.79 730.805 150.206 730.162C149.626 729.515 149.336 728.653 149.336 727.579V727.502ZM150.879 727.636C150.879 728.342 151.025 728.897 151.317 729.299C151.609 729.697 152.015 729.896 152.536 729.896C153.056 729.896 153.46 729.692 153.748 729.286C154.04 728.88 154.186 728.285 154.186 727.502C154.186 726.808 154.036 726.258 153.735 725.852C153.439 725.446 153.035 725.243 152.523 725.243C152.019 725.243 151.619 725.444 151.323 725.846C151.027 726.243 150.879 726.84 150.879 727.636ZM163.041 727.636C163.041 728.698 162.8 729.546 162.317 730.181C161.835 730.812 161.188 731.127 160.375 731.127C159.622 731.127 159.019 730.879 158.566 730.384V733.641H157.023V724.132H158.445L158.509 724.83C158.962 724.28 159.577 724.005 160.356 724.005C161.194 724.005 161.85 724.318 162.324 724.944C162.802 725.566 163.041 726.432 163.041 727.541V727.636ZM161.505 727.502C161.505 726.817 161.367 726.273 161.092 725.871C160.821 725.469 160.432 725.268 159.924 725.268C159.294 725.268 158.841 725.528 158.566 726.049V729.096C158.845 729.629 159.302 729.896 159.937 729.896C160.428 729.896 160.811 729.699 161.086 729.305C161.365 728.907 161.505 728.306 161.505 727.502ZM169.021 724.132L169.065 724.925C169.573 724.312 170.239 724.005 171.064 724.005C172.495 724.005 173.223 724.824 173.248 726.461V731H171.706V726.55C171.706 726.114 171.61 725.793 171.42 725.585C171.234 725.374 170.927 725.268 170.5 725.268C169.877 725.268 169.414 725.549 169.109 726.112V731H167.567V724.132H169.021ZM174.537 727.502C174.537 726.83 174.67 726.224 174.937 725.687C175.203 725.145 175.578 724.731 176.06 724.443C176.542 724.151 177.097 724.005 177.723 724.005C178.65 724.005 179.401 724.303 179.977 724.9C180.556 725.497 180.869 726.288 180.916 727.274L180.922 727.636C180.922 728.313 180.791 728.918 180.529 729.451C180.271 729.984 179.898 730.397 179.412 730.689C178.929 730.981 178.371 731.127 177.736 731.127C176.767 731.127 175.99 730.805 175.406 730.162C174.826 729.515 174.537 728.653 174.537 727.579V727.502ZM176.079 727.636C176.079 728.342 176.225 728.897 176.517 729.299C176.809 729.697 177.215 729.896 177.736 729.896C178.256 729.896 178.66 729.692 178.948 729.286C179.24 728.88 179.386 728.285 179.386 727.502C179.386 726.808 179.236 726.258 178.936 725.852C178.639 725.446 178.235 725.243 177.723 725.243C177.22 725.243 176.82 725.444 176.523 725.846C176.227 726.243 176.079 726.84 176.079 727.636ZM188.26 728.874L189.352 724.132H190.856L188.984 731H187.714L186.242 726.284L184.794 731H183.525L181.646 724.132H183.15L184.261 728.823L185.67 724.132H186.832L188.26 728.874Z" fill="#D6D3D3"/>
    <path d="M339.545 727.566V731H337.939V721.758H341.475C342.508 721.758 343.326 722.027 343.932 722.564C344.541 723.101 344.846 723.812 344.846 724.697C344.846 725.602 344.547 726.307 343.951 726.811C343.358 727.314 342.527 727.566 341.456 727.566H339.545ZM339.545 726.277H341.475C342.046 726.277 342.482 726.144 342.783 725.877C343.083 725.607 343.233 725.217 343.233 724.709C343.233 724.21 343.081 723.812 342.776 723.516C342.472 723.216 342.053 723.061 341.52 723.053H339.545V726.277ZM349.702 725.541C349.499 725.507 349.289 725.49 349.073 725.49C348.367 725.49 347.89 725.761 347.645 726.303V731H346.103V724.132H347.575L347.613 724.9C347.986 724.303 348.502 724.005 349.162 724.005C349.382 724.005 349.564 724.035 349.708 724.094L349.702 725.541ZM350.159 727.502C350.159 726.83 350.292 726.224 350.559 725.687C350.825 725.145 351.2 724.731 351.682 724.443C352.165 724.151 352.719 724.005 353.345 724.005C354.272 724.005 355.023 724.303 355.599 724.9C356.178 725.497 356.492 726.288 356.538 727.274L356.544 727.636C356.544 728.313 356.413 728.918 356.151 729.451C355.893 729.984 355.52 730.397 355.034 730.689C354.551 730.981 353.993 731.127 353.358 731.127C352.389 731.127 351.612 730.805 351.028 730.162C350.449 729.515 350.159 728.653 350.159 727.579V727.502ZM351.701 727.636C351.701 728.342 351.847 728.897 352.139 729.299C352.431 729.697 352.837 729.896 353.358 729.896C353.878 729.896 354.283 729.692 354.57 729.286C354.862 728.88 355.008 728.285 355.008 727.502C355.008 726.808 354.858 726.258 354.558 725.852C354.261 725.446 353.857 725.243 353.345 725.243C352.842 725.243 352.442 725.444 352.146 725.846C351.849 726.243 351.701 726.84 351.701 727.636ZM358.392 731V725.274H357.344V724.132H358.392V723.503C358.392 722.742 358.603 722.153 359.026 721.739C359.45 721.324 360.042 721.117 360.804 721.117C361.075 721.117 361.362 721.155 361.667 721.231L361.629 722.437C361.46 722.403 361.263 722.386 361.039 722.386C360.302 722.386 359.934 722.765 359.934 723.522V724.132H361.331V725.274H359.934V731H358.392ZM364.098 731H362.556V724.132H364.098V731ZM362.46 722.348C362.46 722.111 362.535 721.914 362.683 721.758C362.835 721.601 363.051 721.523 363.33 721.523C363.609 721.523 363.825 721.601 363.978 721.758C364.13 721.914 364.206 722.111 364.206 722.348C364.206 722.581 364.13 722.776 363.978 722.932C363.825 723.084 363.609 723.161 363.33 723.161C363.051 723.161 362.835 723.084 362.683 722.932C362.535 722.776 362.46 722.581 362.46 722.348ZM367.424 731H365.882V721.25H367.424V731ZM372.134 731.127C371.157 731.127 370.363 730.82 369.754 730.207C369.149 729.589 368.846 728.768 368.846 727.744V727.553C368.846 726.868 368.977 726.256 369.24 725.719C369.506 725.177 369.879 724.756 370.357 724.456C370.835 724.155 371.368 724.005 371.957 724.005C372.892 724.005 373.613 724.303 374.121 724.9C374.633 725.497 374.889 726.341 374.889 727.433V728.055H370.401C370.448 728.622 370.636 729.07 370.966 729.4C371.301 729.73 371.72 729.896 372.223 729.896C372.93 729.896 373.505 729.61 373.95 729.039L374.781 729.832C374.506 730.243 374.138 730.562 373.677 730.791C373.22 731.015 372.706 731.127 372.134 731.127ZM371.95 725.243C371.527 725.243 371.184 725.391 370.922 725.687C370.664 725.983 370.499 726.396 370.427 726.925H373.366V726.811C373.332 726.294 373.194 725.905 372.953 725.643C372.712 725.376 372.378 725.243 371.95 725.243Z" fill="#C71712"/>
    <path fill-rule="evenodd" clip-rule="evenodd" d="M67.2614 686C65.5547 686 63.9179 686.678 62.7111 687.885C61.5043 689.092 60.8264 690.728 60.8264 692.435V694.044H59.2176C58.8216 694.044 58.4394 694.19 58.1444 694.454C57.8493 694.718 57.6621 695.082 57.6185 695.476L56.0098 709.954C55.9849 710.179 56.0077 710.407 56.0767 710.622C56.1457 710.838 56.2594 711.036 56.4103 711.204C56.5612 711.373 56.7459 711.508 56.9525 711.6C57.159 711.692 57.3827 711.74 57.6089 711.74H76.9139C77.1401 711.74 77.3637 711.692 77.5703 711.6C77.7768 711.508 77.9615 711.373 78.1124 711.204C78.2633 711.036 78.377 710.838 78.446 710.622C78.515 710.407 78.5378 710.179 78.513 709.954L76.9042 695.476C76.8606 695.082 76.6734 694.718 76.3784 694.454C76.0833 694.19 75.7012 694.044 75.3051 694.044H73.6964V692.435C73.6964 690.728 73.0184 689.092 71.8116 687.885C70.6048 686.678 68.968 686 67.2614 686ZM70.4789 694.044V692.435C70.4789 691.582 70.1399 690.763 69.5365 690.16C68.9331 689.556 68.1147 689.217 67.2614 689.217C66.408 689.217 65.5896 689.556 64.9862 690.16C64.3828 690.763 64.0439 691.582 64.0439 692.435V694.044H70.4789ZM60.8264 698.87C60.8264 698.443 60.9959 698.034 61.2976 697.732C61.5993 697.431 62.0084 697.261 62.4351 697.261C62.8618 697.261 63.271 697.431 63.5727 697.732C63.8744 698.034 64.0439 698.443 64.0439 698.87C64.0439 699.297 63.8744 699.706 63.5727 700.008C63.271 700.309 62.8618 700.479 62.4351 700.479C62.0084 700.479 61.5993 700.309 61.2976 700.008C60.9959 699.706 60.8264 699.297 60.8264 698.87ZM72.0876 697.261C71.6609 697.261 71.2518 697.431 70.9501 697.732C70.6484 698.034 70.4789 698.443 70.4789 698.87C70.4789 699.297 70.6484 699.706 70.9501 700.008C71.2518 700.309 71.6609 700.479 72.0876 700.479C72.5143 700.479 72.9235 700.309 73.2252 700.008C73.5269 699.706 73.6964 699.297 73.6964 698.87C73.6964 698.443 73.5269 698.034 73.2252 697.732C72.9235 697.431 72.5143 697.261 72.0876 697.261Z" fill="#D6D3D3"/>
    <path d="M355.5 686C353.795 686 352.464 686.631 351.505 687.893C350.546 689.155 350.067 690.768 350.067 692.732C350.055 695.173 350.836 697.107 352.411 698.536C352.612 698.726 352.683 698.97 352.624 699.268L352.215 700.125C352.085 700.411 351.893 700.634 351.638 700.795C351.384 700.955 350.848 701.185 350.031 701.482C349.996 701.494 349.247 701.738 347.785 702.214C346.323 702.69 345.545 702.952 345.45 703C344.456 703.417 343.805 703.851 343.497 704.304C343.166 705.054 343 706.952 343 710H368C368 706.952 367.834 705.054 367.503 704.304C367.195 703.851 366.544 703.417 365.55 703C365.455 702.952 364.677 702.69 363.215 702.214C361.753 701.738 361.004 701.494 360.969 701.482C360.152 701.185 359.616 700.955 359.362 700.795C359.107 700.634 358.915 700.411 358.785 700.125L358.376 699.268C358.317 698.97 358.388 698.726 358.589 698.536C360.164 697.107 360.945 695.173 360.933 692.732C360.933 690.768 360.454 689.155 359.495 687.893C358.536 686.631 357.205 686 355.5 686Z" fill="#C71712"/>
    <path d="M239.271 731H237.665L233.545 724.443V731H231.939V721.758H233.545L237.678 728.34V721.758H239.271V731ZM240.731 727.502C240.731 726.83 240.864 726.224 241.131 725.687C241.397 725.145 241.772 724.731 242.254 724.443C242.737 724.151 243.291 724.005 243.917 724.005C244.844 724.005 245.595 724.303 246.171 724.9C246.751 725.497 247.064 726.288 247.11 727.274L247.117 727.636C247.117 728.313 246.986 728.918 246.723 729.451C246.465 729.984 246.093 730.397 245.606 730.689C245.124 730.981 244.565 731.127 243.93 731.127C242.961 731.127 242.185 730.805 241.601 730.162C241.021 729.515 240.731 728.653 240.731 727.579V727.502ZM242.273 727.636C242.273 728.342 242.419 728.897 242.711 729.299C243.003 729.697 243.41 729.896 243.93 729.896C244.451 729.896 244.855 729.692 245.143 729.286C245.435 728.88 245.581 728.285 245.581 727.502C245.581 726.808 245.43 726.258 245.13 725.852C244.834 725.446 244.43 725.243 243.917 725.243C243.414 725.243 243.014 725.444 242.718 725.846C242.422 726.243 242.273 726.84 242.273 727.636ZM250.354 722.462V724.132H251.566V725.274H250.354V729.108C250.354 729.371 250.405 729.561 250.506 729.68C250.612 729.794 250.798 729.851 251.065 729.851C251.243 729.851 251.423 729.83 251.604 729.788V730.981C251.253 731.078 250.915 731.127 250.589 731.127C249.404 731.127 248.812 730.473 248.812 729.166V725.274H247.682V724.132H248.812V722.462H250.354ZM254.391 731H252.849V724.132H254.391V731ZM252.753 722.348C252.753 722.111 252.827 721.914 252.976 721.758C253.128 721.601 253.344 721.523 253.623 721.523C253.902 721.523 254.118 721.601 254.271 721.758C254.423 721.914 254.499 722.111 254.499 722.348C254.499 722.581 254.423 722.776 254.271 722.932C254.118 723.084 253.902 723.161 253.623 723.161C253.344 723.161 253.128 723.084 252.976 722.932C252.827 722.776 252.753 722.581 252.753 722.348ZM256.619 731V725.274H255.572V724.132H256.619V723.503C256.619 722.742 256.831 722.153 257.254 721.739C257.677 721.324 258.27 721.117 259.031 721.117C259.302 721.117 259.59 721.155 259.895 721.231L259.856 722.437C259.687 722.403 259.49 722.386 259.266 722.386C258.53 722.386 258.162 722.765 258.162 723.522V724.132H259.558V725.274H258.162V731H256.619ZM262.326 731H260.783V724.132H262.326V731ZM260.688 722.348C260.688 722.111 260.762 721.914 260.91 721.758C261.062 721.601 261.278 721.523 261.558 721.523C261.837 721.523 262.053 721.601 262.205 721.758C262.357 721.914 262.434 722.111 262.434 722.348C262.434 722.581 262.357 722.776 262.205 722.932C262.053 723.084 261.837 723.161 261.558 723.161C261.278 723.161 261.062 723.084 260.91 722.932C260.762 722.776 260.688 722.581 260.688 722.348ZM266.833 729.896C267.218 729.896 267.537 729.783 267.791 729.559C268.045 729.335 268.18 729.058 268.197 728.728H269.651C269.634 729.155 269.501 729.555 269.251 729.927C269.001 730.295 268.663 730.587 268.235 730.803C267.808 731.019 267.347 731.127 266.852 731.127C265.891 731.127 265.129 730.816 264.566 730.194C264.004 729.572 263.722 728.713 263.722 727.617V727.458C263.722 726.413 264.001 725.577 264.56 724.951C265.119 724.32 265.88 724.005 266.845 724.005C267.662 724.005 268.326 724.244 268.838 724.722C269.355 725.196 269.625 725.82 269.651 726.595H268.197C268.18 726.201 268.045 725.877 267.791 725.624C267.541 725.37 267.222 725.243 266.833 725.243C266.333 725.243 265.948 725.425 265.677 725.789C265.406 726.148 265.269 726.696 265.265 727.433V727.68C265.265 728.425 265.398 728.981 265.665 729.35C265.935 729.714 266.325 729.896 266.833 729.896ZM274.919 731C274.852 730.869 274.792 730.655 274.742 730.359C274.251 730.871 273.65 731.127 272.939 731.127C272.249 731.127 271.686 730.93 271.25 730.537C270.815 730.143 270.597 729.656 270.597 729.077C270.597 728.345 270.868 727.784 271.409 727.395C271.955 727.001 272.734 726.804 273.745 726.804H274.691V726.354C274.691 725.998 274.591 725.715 274.393 725.503C274.194 725.287 273.891 725.179 273.485 725.179C273.134 725.179 272.846 725.268 272.622 725.446C272.397 725.619 272.285 725.841 272.285 726.112H270.743C270.743 725.736 270.868 725.384 271.117 725.059C271.367 724.729 271.705 724.47 272.133 724.284C272.564 724.098 273.045 724.005 273.574 724.005C274.378 724.005 275.019 724.208 275.497 724.614C275.975 725.016 276.221 725.583 276.233 726.315V729.413C276.233 730.031 276.32 730.524 276.494 730.892V731H274.919ZM273.225 729.889C273.529 729.889 273.815 729.815 274.082 729.667C274.352 729.519 274.556 729.32 274.691 729.07V727.775H273.859C273.288 727.775 272.859 727.875 272.571 728.074C272.283 728.273 272.139 728.554 272.139 728.918C272.139 729.214 272.236 729.451 272.431 729.629C272.63 729.802 272.895 729.889 273.225 729.889ZM279.782 722.462V724.132H280.994V725.274H279.782V729.108C279.782 729.371 279.833 729.561 279.934 729.68C280.04 729.794 280.226 729.851 280.493 729.851C280.67 729.851 280.85 729.83 281.032 729.788V730.981C280.681 731.078 280.342 731.127 280.017 731.127C278.832 731.127 278.239 730.473 278.239 729.166V725.274H277.109V724.132H278.239V722.462H279.782ZM283.819 731H282.276V724.132H283.819V731ZM282.181 722.348C282.181 722.111 282.255 721.914 282.403 721.758C282.556 721.601 282.771 721.523 283.051 721.523C283.33 721.523 283.546 721.601 283.698 721.758C283.851 721.914 283.927 722.111 283.927 722.348C283.927 722.581 283.851 722.776 283.698 722.932C283.546 723.084 283.33 723.161 283.051 723.161C282.771 723.161 282.556 723.084 282.403 722.932C282.255 722.776 282.181 722.581 282.181 722.348ZM285.215 727.502C285.215 726.83 285.349 726.224 285.615 725.687C285.882 725.145 286.256 724.731 286.739 724.443C287.221 724.151 287.776 724.005 288.402 724.005C289.329 724.005 290.08 724.303 290.655 724.9C291.235 725.497 291.548 726.288 291.595 727.274L291.601 727.636C291.601 728.313 291.47 728.918 291.208 729.451C290.949 729.984 290.577 730.397 290.09 730.689C289.608 730.981 289.049 731.127 288.415 731.127C287.445 731.127 286.669 730.805 286.085 730.162C285.505 729.515 285.215 728.653 285.215 727.579V727.502ZM286.758 727.636C286.758 728.342 286.904 728.897 287.196 729.299C287.488 729.697 287.894 729.896 288.415 729.896C288.935 729.896 289.339 729.692 289.627 729.286C289.919 728.88 290.065 728.285 290.065 727.502C290.065 726.808 289.915 726.258 289.614 725.852C289.318 725.446 288.914 725.243 288.402 725.243C287.898 725.243 287.498 725.444 287.202 725.846C286.906 726.243 286.758 726.84 286.758 727.636ZM294.337 724.132L294.381 724.925C294.889 724.312 295.556 724.005 296.381 724.005C297.811 724.005 298.539 724.824 298.564 726.461V731H297.022V726.55C297.022 726.114 296.927 725.793 296.736 725.585C296.55 725.374 296.243 725.268 295.816 725.268C295.194 725.268 294.73 725.549 294.426 726.112V731H292.883V724.132H294.337Z" fill="#C71712"/>
    <path d="M239.271 731H237.665L233.545 724.443V731H231.939V721.758H233.545L237.678 728.34V721.758H239.271V731ZM240.731 727.502C240.731 726.83 240.864 726.224 241.131 725.687C241.397 725.145 241.772 724.731 242.254 724.443C242.737 724.151 243.291 724.005 243.917 724.005C244.844 724.005 245.595 724.303 246.171 724.9C246.751 725.497 247.064 726.288 247.11 727.274L247.117 727.636C247.117 728.313 246.986 728.918 246.723 729.451C246.465 729.984 246.093 730.397 245.606 730.689C245.124 730.981 244.565 731.127 243.93 731.127C242.961 731.127 242.185 730.805 241.601 730.162C241.021 729.515 240.731 728.653 240.731 727.579V727.502ZM242.273 727.636C242.273 728.342 242.419 728.897 242.711 729.299C243.003 729.697 243.41 729.896 243.93 729.896C244.451 729.896 244.855 729.692 245.143 729.286C245.435 728.88 245.581 728.285 245.581 727.502C245.581 726.808 245.43 726.258 245.13 725.852C244.834 725.446 244.43 725.243 243.917 725.243C243.414 725.243 243.014 725.444 242.718 725.846C242.422 726.243 242.273 726.84 242.273 727.636ZM250.354 722.462V724.132H251.566V725.274H250.354V729.108C250.354 729.371 250.405 729.561 250.506 729.68C250.612 729.794 250.798 729.851 251.065 729.851C251.243 729.851 251.423 729.83 251.604 729.788V730.981C251.253 731.078 250.915 731.127 250.589 731.127C249.404 731.127 248.812 730.473 248.812 729.166V725.274H247.682V724.132H248.812V722.462H250.354ZM254.391 731H252.849V724.132H254.391V731ZM252.753 722.348C252.753 722.111 252.827 721.914 252.976 721.758C253.128 721.601 253.344 721.523 253.623 721.523C253.902 721.523 254.118 721.601 254.271 721.758C254.423 721.914 254.499 722.111 254.499 722.348C254.499 722.581 254.423 722.776 254.271 722.932C254.118 723.084 253.902 723.161 253.623 723.161C253.344 723.161 253.128 723.084 252.976 722.932C252.827 722.776 252.753 722.581 252.753 722.348ZM256.619 731V725.274H255.572V724.132H256.619V723.503C256.619 722.742 256.831 722.153 257.254 721.739C257.677 721.324 258.27 721.117 259.031 721.117C259.302 721.117 259.59 721.155 259.895 721.231L259.856 722.437C259.687 722.403 259.49 722.386 259.266 722.386C258.53 722.386 258.162 722.765 258.162 723.522V724.132H259.558V725.274H258.162V731H256.619ZM262.326 731H260.783V724.132H262.326V731ZM260.688 722.348C260.688 722.111 260.762 721.914 260.91 721.758C261.062 721.601 261.278 721.523 261.558 721.523C261.837 721.523 262.053 721.601 262.205 721.758C262.357 721.914 262.434 722.111 262.434 722.348C262.434 722.581 262.357 722.776 262.205 722.932C262.053 723.084 261.837 723.161 261.558 723.161C261.278 723.161 261.062 723.084 260.91 722.932C260.762 722.776 260.688 722.581 260.688 722.348ZM266.833 729.896C267.218 729.896 267.537 729.783 267.791 729.559C268.045 729.335 268.18 729.058 268.197 728.728H269.651C269.634 729.155 269.501 729.555 269.251 729.927C269.001 730.295 268.663 730.587 268.235 730.803C267.808 731.019 267.347 731.127 266.852 731.127C265.891 731.127 265.129 730.816 264.566 730.194C264.004 729.572 263.722 728.713 263.722 727.617V727.458C263.722 726.413 264.001 725.577 264.56 724.951C265.119 724.32 265.88 724.005 266.845 724.005C267.662 724.005 268.326 724.244 268.838 724.722C269.355 725.196 269.625 725.82 269.651 726.595H268.197C268.18 726.201 268.045 725.877 267.791 725.624C267.541 725.37 267.222 725.243 266.833 725.243C266.333 725.243 265.948 725.425 265.677 725.789C265.406 726.148 265.269 726.696 265.265 727.433V727.68C265.265 728.425 265.398 728.981 265.665 729.35C265.935 729.714 266.325 729.896 266.833 729.896ZM274.919 731C274.852 730.869 274.792 730.655 274.742 730.359C274.251 730.871 273.65 731.127 272.939 731.127C272.249 731.127 271.686 730.93 271.25 730.537C270.815 730.143 270.597 729.656 270.597 729.077C270.597 728.345 270.868 727.784 271.409 727.395C271.955 727.001 272.734 726.804 273.745 726.804H274.691V726.354C274.691 725.998 274.591 725.715 274.393 725.503C274.194 725.287 273.891 725.179 273.485 725.179C273.134 725.179 272.846 725.268 272.622 725.446C272.397 725.619 272.285 725.841 272.285 726.112H270.743C270.743 725.736 270.868 725.384 271.117 725.059C271.367 724.729 271.705 724.47 272.133 724.284C272.564 724.098 273.045 724.005 273.574 724.005C274.378 724.005 275.019 724.208 275.497 724.614C275.975 725.016 276.221 725.583 276.233 726.315V729.413C276.233 730.031 276.32 730.524 276.494 730.892V731H274.919ZM273.225 729.889C273.529 729.889 273.815 729.815 274.082 729.667C274.352 729.519 274.556 729.32 274.691 729.07V727.775H273.859C273.288 727.775 272.859 727.875 272.571 728.074C272.283 728.273 272.139 728.554 272.139 728.918C272.139 729.214 272.236 729.451 272.431 729.629C272.63 729.802 272.895 729.889 273.225 729.889ZM279.782 722.462V724.132H280.994V725.274H279.782V729.108C279.782 729.371 279.833 729.561 279.934 729.68C280.04 729.794 280.226 729.851 280.493 729.851C280.67 729.851 280.85 729.83 281.032 729.788V730.981C280.681 731.078 280.342 731.127 280.017 731.127C278.832 731.127 278.239 730.473 278.239 729.166V725.274H277.109V724.132H278.239V722.462H279.782ZM283.819 731H282.276V724.132H283.819V731ZM282.181 722.348C282.181 722.111 282.255 721.914 282.403 721.758C282.556 721.601 282.771 721.523 283.051 721.523C283.33 721.523 283.546 721.601 283.698 721.758C283.851 721.914 283.927 722.111 283.927 722.348C283.927 722.581 283.851 722.776 283.698 722.932C283.546 723.084 283.33 723.161 283.051 723.161C282.771 723.161 282.556 723.084 282.403 722.932C282.255 722.776 282.181 722.581 282.181 722.348ZM285.215 727.502C285.215 726.83 285.349 726.224 285.615 725.687C285.882 725.145 286.256 724.731 286.739 724.443C287.221 724.151 287.776 724.005 288.402 724.005C289.329 724.005 290.08 724.303 290.655 724.9C291.235 725.497 291.548 726.288 291.595 727.274L291.601 727.636C291.601 728.313 291.47 728.918 291.208 729.451C290.949 729.984 290.577 730.397 290.09 730.689C289.608 730.981 289.049 731.127 288.415 731.127C287.445 731.127 286.669 730.805 286.085 730.162C285.505 729.515 285.215 728.653 285.215 727.579V727.502ZM286.758 727.636C286.758 728.342 286.904 728.897 287.196 729.299C287.488 729.697 287.894 729.896 288.415 729.896C288.935 729.896 289.339 729.692 289.627 729.286C289.919 728.88 290.065 728.285 290.065 727.502C290.065 726.808 289.915 726.258 289.614 725.852C289.318 725.446 288.914 725.243 288.402 725.243C287.898 725.243 287.498 725.444 287.202 725.846C286.906 726.243 286.758 726.84 286.758 727.636ZM294.337 724.132L294.381 724.925C294.889 724.312 295.556 724.005 296.381 724.005C297.811 724.005 298.539 724.824 298.564 726.461V731H297.022V726.55C297.022 726.114 296.927 725.793 296.736 725.585C296.55 725.374 296.243 725.268 295.816 725.268C295.194 725.268 294.73 725.549 294.426 726.112V731H292.883V724.132H294.337Z" fill="#D6D3D3"/>
    <path d="M264.177 711.877C264.679 711.865 265.16 711.677 265.536 711.345C265.912 711.012 266.158 710.558 266.231 710.062H262.044C262.119 710.572 262.377 711.037 262.769 711.37C263.162 711.704 263.662 711.884 264.177 711.877Z" fill="#D6D3D3"/>
    <path d="M276 706.981L275.729 706.742C274.961 706.058 274.289 705.273 273.731 704.41C273.122 703.217 272.756 701.916 272.656 700.58V696.648C272.653 696.17 272.611 695.693 272.529 695.223C271.181 694.946 269.969 694.211 269.1 693.143C268.231 692.075 267.758 690.74 267.76 689.363V688.862C266.929 688.453 266.036 688.184 265.117 688.066V687.063C265.117 686.781 265.005 686.511 264.806 686.311C264.607 686.112 264.337 686 264.055 686C263.773 686 263.502 686.112 263.303 686.311C263.104 686.511 262.992 686.781 262.992 687.063V688.106C260.935 688.396 259.052 689.421 257.691 690.991C256.33 692.561 255.583 694.57 255.588 696.648V700.58C255.489 701.916 255.123 703.217 254.514 704.41C253.965 705.271 253.304 706.056 252.547 706.742L252.276 706.981V709.226H276V706.981Z" fill="#D6D3D3"/>
    <path d="M252.276 706.981L252.547 706.743C253.315 706.058 253.987 705.274 254.545 704.41C255.155 703.218 255.52 701.916 255.62 700.581V696.648C255.623 696.171 255.665 695.694 255.747 695.223C257.096 694.946 258.307 694.211 259.176 693.144C260.045 692.076 260.518 690.741 260.516 689.364V688.862C261.347 688.453 262.24 688.184 263.159 688.066V687.063C263.159 686.781 263.271 686.511 263.47 686.312C263.669 686.112 263.94 686 264.221 686C264.503 686 264.774 686.112 264.973 686.312C265.172 686.511 265.284 686.781 265.284 687.063V688.106C267.342 688.396 269.224 689.421 270.585 690.991C271.946 692.561 272.693 694.571 272.688 696.648V700.581C272.788 701.916 273.153 703.218 273.763 704.41C274.311 705.272 274.972 706.056 275.729 706.743L276 706.981V709.226H252.276V706.981Z" fill="#D6D3D3"/>
    <path d="M263.902 711.877C264.403 711.865 264.884 711.677 265.26 711.345C265.636 711.012 265.882 710.558 265.956 710.062H261.768C261.843 710.572 262.101 711.037 262.494 711.37C262.886 711.704 263.386 711.884 263.902 711.877Z" fill="#D6D3D3"/>
    <path d="M275.724 706.981L275.453 706.742C274.686 706.058 274.013 705.273 273.455 704.41C272.846 703.217 272.48 701.916 272.381 700.58V696.648C272.377 696.17 272.335 695.693 272.253 695.223C270.905 694.946 269.693 694.211 268.824 693.143C267.955 692.075 267.482 690.74 267.485 689.363V688.862C266.653 688.453 265.76 688.184 264.842 688.066V687.063C264.842 686.781 264.73 686.511 264.53 686.311C264.331 686.112 264.061 686 263.779 686C263.497 686 263.227 686.112 263.027 686.311C262.828 686.511 262.716 686.781 262.716 687.063V688.106C260.659 688.396 258.776 689.421 257.415 690.991C256.054 692.561 255.307 694.57 255.312 696.648V700.58C255.213 701.916 254.847 703.217 254.238 704.41C253.689 705.271 253.028 706.056 252.271 706.742L252.001 706.981V709.226H275.724V706.981Z" fill="#D6D3D3"/>
    <path d="M252 706.981L252.271 706.743C253.039 706.058 253.711 705.274 254.269 704.41C254.879 703.218 255.244 701.916 255.344 700.581V696.648C255.347 696.171 255.39 695.694 255.471 695.223C256.82 694.946 258.031 694.211 258.9 693.144C259.769 692.076 260.242 690.741 260.24 689.364V688.862C261.071 688.453 261.964 688.184 262.883 688.066V687.063C262.883 686.781 262.995 686.511 263.194 686.312C263.393 686.112 263.664 686 263.946 686C264.227 686 264.498 686.112 264.697 686.312C264.896 686.511 265.008 686.781 265.008 687.063V688.106C267.066 688.396 268.949 689.421 270.309 690.991C271.67 692.561 272.417 694.571 272.412 696.648V700.581C272.512 701.916 272.877 703.218 273.487 704.41C274.035 705.272 274.697 706.056 275.453 706.743L275.724 706.981V709.226H252V706.981Z" fill="#D6D3D3"/>
    <path d="M174.781 706.251H153.733V689.227C153.735 688.96 153.63 688.705 153.443 688.516L151.354 686.295C150.961 685.902 150.188 685.902 149.795 686.294C149.402 686.687 149.402 687.461 149.795 687.854L151.729 689.637V707.252C151.729 707.805 152.178 708.253 152.731 708.253H154.916C154.35 709.813 155.156 711.536 156.717 712.102C158.278 712.668 160.002 711.863 160.569 710.303C160.809 709.641 160.809 708.916 160.569 708.253H167.946C167.379 709.813 168.185 711.536 169.746 712.102C171.307 712.668 173.032 711.863 173.599 710.303C173.839 709.641 173.839 708.915 173.599 708.253H174.781C175.335 708.253 175.784 707.805 175.784 707.252C175.784 706.699 175.335 706.251 174.781 706.251Z" fill="#D6D3D3"/>
    <path d="M172.665 703.929V694.234C172.672 693.7 172.277 693.242 171.737 693.157L154.993 690.453V705.006H171.56C172.17 705.006 172.665 704.524 172.665 703.929Z" fill="#D6D3D3"/>
    <defs>
        <filter id="filter0_d" x="-26" y="643" width="462" height="127" filterUnits="userSpaceOnUse" color-interpolation-filters="sRGB">
            <feFlood flood-opacity="0" result="BackgroundImageFix"/>
            <feColorMatrix in="SourceAlpha" type="matrix" values="0 0 0 0 0 0 0 0 0 0 0 0 0 0 0 0 0 0 127 0"/>
            <feMorphology radius="4" operator="dilate" in="SourceAlpha" result="effect1_dropShadow"/>
            <feOffset dx="-2" dy="-2"/>
            <feGaussianBlur stdDeviation="10"/>
            <feColorMatrix type="matrix" values="0 0 0 0 0.341667 0 0 0 0 0.310347 0 0 0 0 0.310347 0 0 0 0.1 0"/>
            <feBlend mode="normal" in2="BackgroundImageFix" result="effect1_dropShadow"/>
            <feBlend mode="normal" in="SourceGraphic" in2="effect1_dropShadow" result="shape"/>
        </filter>
    </defs>
</svg>
