<svg width="10" height="16" viewBox="0 0 12 18" fill="none"
    xmlns="http://www.w3.org/2000/svg">
    <path d="M1.36475 0.000309948C1.09871 -0.00554133 0.837465 0.0715788 0.617324 0.221067C0.397182 0.370556 0.229086 0.585024 0.136407 0.834463C0.043728 1.0839 0.0310705 1.35598 0.100194 1.61295C0.169317 1.86991 0.316787 2.09885 0.5221 2.26813L8.35598 8.9793L0.5221 15.6881C0.380075 15.7925 0.261132 15.925 0.17272 16.0775C0.084308 16.23 0.0283325 16.3991 0.00829794 16.5742C-0.0117367 16.7494 0.00460175 16.9267 0.0562898 17.0952C0.107978 17.2637 0.193902 17.4198 0.308681 17.5535C0.423461 17.6873 0.564623 17.7958 0.723328 17.8725C0.882033 17.9492 1.05486 17.9923 1.23099 17.999C1.40712 18.0058 1.58275 17.9763 1.74689 17.9121C1.91104 17.8478 2.06015 17.7504 2.18489 17.6259L11.154 9.95196C11.2948 9.83176 11.4079 9.68257 11.4855 9.51443C11.563 9.34629 11.6032 9.16328 11.6032 8.97812C11.6032 8.79295 11.563 8.60994 11.4855 8.4418C11.4079 8.27366 11.2948 8.12433 11.154 8.00413L2.18489 0.322808C1.95832 0.121559 1.66771 0.00714455 1.36475 1.46205e-05V0.000309948Z" fill="black"/>
</svg>
