<svg width="185" height="175" viewBox="0 0 185 175" fill="none" xmlns="http://www.w3.org/2000/svg">
<circle cx="90" cy="85" r="87.5" fill="#E2D182"/>
<mask id="mask0" mask-type="alpha" maskUnits="userSpaceOnUse" x="0" y="0" width="179" height="176">
<ellipse cx="89.4978" cy="87.9714" rx="85.0554" ry="83.2079" transform="rotate(-3.0001 89.4978 87.9714)" fill="#A1C349"/>
</mask>
<g mask="url(#mask0)">
<g filter="url(#filter0_d)">
<path d="M42.8904 173.753L157.214 167.762C150.575 160.093 140.143 151.885 131.645 145.685C123.711 139.983 117.485 136.09 117.485 136.09L116.406 127.814L114.314 112.524L75.5513 89.0291L77.9825 135.418C74.2871 138.776 70.1958 142.788 66.3244 146.894C54.1907 159.554 42.8904 173.753 42.8904 173.753Z" fill="#FBBBC2"/>
<path d="M75.5513 89.0283L76.6374 109.751C89.2343 128.499 109.452 128.494 116.406 127.813L114.314 112.523L75.5513 89.0283Z" fill="#FF8592"/>
<path d="M42.8904 173.752L157.214 167.76C150.575 160.092 140.143 151.884 131.645 145.684C127.576 150.116 116.897 159.747 100.595 160.602C84.0796 161.467 71.0713 151.285 66.2117 146.793C64.5784 148.46 63.0525 150.123 61.5265 151.785C51.3643 163.076 42.8904 173.752 42.8904 173.752Z" fill="#FFAD01"/>
<path d="M42.8904 173.753L107.023 170.391L102.906 163.646C80.9369 165.113 67.3734 156.647 61.532 151.891C51.3643 163.077 42.8904 173.753 42.8904 173.753Z" fill="#E29000"/>
<path d="M125.582 146.952C125.582 146.952 111.627 149.477 107.815 150.626C104.004 151.775 104.186 155.246 104.186 155.246" stroke="#3A1451" stroke-miterlimit="10" stroke-linecap="round" stroke-linejoin="round"/>
<path d="M73.2242 149.274C73.2242 149.274 89.2068 150.546 93.5463 151.268C97.9985 152.089 98.2024 155.981 98.2024 155.981" stroke="#3A1451" stroke-miterlimit="10" stroke-linecap="round" stroke-linejoin="round"/>
<path d="M129.533 142.315C129.533 142.315 131.756 147.789 133.835 168.987L123.217 169.543C123.217 169.543 122.854 148.255 119.941 135.75L129.533 142.315Z" fill="#F02715"/>
<path d="M85.1451 171.538C85.1451 171.538 80.6327 151.101 71.1084 139.681L65.0896 145.903C65.0896 145.903 70.9761 159.729 73.3481 172.156L85.1451 171.538Z" fill="#F02715"/>
<path d="M71.2023 77.8652C75.83 96.3981 86.4363 118.204 110.781 116.928C112.39 116.844 113.886 116.66 115.274 116.482C134.818 113.875 132.965 101.104 131.445 80.2984C129.74 58.0261 123.421 37.9997 100.148 39.2194C89.4239 39.7814 82.2304 42.0571 77.3553 45.477C67.198 52.76 68.0686 65.2664 71.2023 77.8652Z" fill="#FBBBC2"/>
<path d="M71.2023 77.8652C75.83 96.398 86.4363 118.204 110.781 116.928C112.39 116.844 113.886 116.66 115.274 116.481C101.057 116.066 89.79 108.324 86.6948 96.4615C84.1279 86.47 79.9092 61.376 77.3608 45.5821C67.198 52.76 68.0686 65.2664 71.2023 77.8652Z" fill="#FF8592"/>
<path d="M79.8617 99.457C86.097 109.678 95.4229 117.311 109.607 117.095" stroke="#3A1451" stroke-miterlimit="10" stroke-linecap="round" stroke-linejoin="round"/>
<path d="M115.627 78.0688C115.627 78.0688 121.331 84.3096 121.109 86.2199C120.886 88.1302 116.662 89.6173 116.662 89.6173" stroke="#3A1451" stroke-miterlimit="10" stroke-linecap="round" stroke-linejoin="round"/>
<path d="M118.281 104.088C118.281 104.088 111.913 105.688 108.321 102.817" stroke="#3A1451" stroke-miterlimit="10" stroke-linecap="round" stroke-linejoin="round"/>
<path d="M96.1229 85.5259C97.8198 87.1246 99.5001 88.4078 101.164 89.3754C109.048 94.1307 117.075 93.3935 121.756 92.4099C124.307 91.8542 125.776 91.1444 125.776 91.1444" stroke="#3A1451" stroke-miterlimit="10" stroke-linecap="round" stroke-linejoin="round"/>
<path d="M101.169 89.4805C101.783 90.925 102.847 92.7679 104.239 94.699C106.786 98.1519 110.507 101.438 115.547 101.174C117.263 101.084 118.641 100.695 119.584 100.224C123.035 98.3551 122.402 94.4855 121.761 92.515C117.188 93.493 109.054 94.2357 101.169 89.4805Z" fill="#474747"/>
<path d="M104.239 94.6991C106.786 98.1519 110.507 101.438 115.547 101.174C117.263 101.084 118.641 100.695 119.584 100.224C117.42 97.911 112.007 93.1317 104.239 94.6991Z" fill="#FF6473"/>
<path d="M118.764 70.2043C119.072 71.9813 120.103 73.193 121.277 73.026C122.452 72.8589 123.018 71.3525 122.71 69.5755C122.401 67.7986 121.37 66.5869 120.196 66.7539C119.129 66.9153 118.455 68.4273 118.764 70.2043Z" fill="#3A1451"/>
<path d="M122.274 61.2664C122.486 59.1458 114.896 57.9614 115.27 61.0006C115.567 62.5673 122.063 63.3871 122.274 61.2664Z" fill="#3A1451"/>
<path d="M102.823 71.7787C103.136 73.6609 102.468 75.2781 101.294 75.4451C100.12 75.6121 98.9759 74.3008 98.6622 72.4186C98.3485 70.5364 99.0165 68.9192 100.191 68.7522C101.365 68.5852 102.509 69.8965 102.823 71.7787Z" fill="#3A1451"/>
<path d="M96.178 64.0049C95.2153 62.0512 102.439 58.2973 103.033 61.4305C103.438 62.9915 97.1462 66.0637 96.178 64.0049Z" fill="#3A1451"/>
<path d="M58.406 69.6755C58.406 69.6755 54.2711 76.9593 63.8636 83.5237C63.8636 83.5237 62.2394 91.5198 76.0119 99.8692C76.0119 99.8692 76.3953 86.6642 74.7856 78.5211L79.6923 85.964L85.0025 86.7405L81.7971 72.7742C81.7971 72.7742 94.884 74.1979 84.1815 52.6081C84.1815 52.6081 99.3041 60.043 118.542 57.769C127.303 56.6769 133.088 52.1545 136.228 46.3996C140.058 39.4482 139.922 30.7005 136.363 24.3473C129.841 12.7699 115.801 15.7208 115.931 24.3633C115.931 24.3633 105.068 18.1819 101.498 30.0773C101.498 30.0773 80.5761 28.9587 72.8475 39.4898C72.8475 39.4898 65.0346 36.102 64.326 43.1008C64.326 43.1008 54.2449 43.6291 58.866 53.8294C58.866 53.8294 49.6459 56.4222 58.406 69.6755Z" fill="#606060"/>
<path d="M84.1815 52.6089C84.1815 52.6089 99.3041 60.0438 118.542 57.7697C127.303 56.6777 133.088 52.1553 136.228 46.4004C130.965 48.5748 120.288 52.0878 109.007 50.253C109.007 50.253 114.65 47.1093 114.512 44.4796C114.369 41.7446 101.954 53.1542 84.1815 52.6089Z" fill="#474747"/>
<path d="M63.8636 83.5238C63.8636 83.5238 62.2394 91.5199 76.0119 99.8693C76.0119 99.8693 76.3952 86.6643 74.7855 78.5212L79.6923 85.9641L85.0025 86.7406L81.7971 72.7743C81.7971 72.7743 94.884 74.198 84.1814 52.6082C84.429 53.2281 87.7081 62.444 83.2343 65.3154C78.5516 68.3033 74.1154 63.6837 74.1154 63.6837C74.1154 63.6837 74.565 74.3136 58.5133 69.67C58.406 69.6756 54.2711 76.9594 63.8636 83.5238Z" fill="#474747"/>
<path d="M130.776 32.658C131.096 38.7591 129.656 48.2222 118.993 54.0551L130.776 32.658Z" fill="#474747"/>
<path d="M129.829 26.9058C129.829 26.9058 130.223 28.2564 130.547 30.3489L129.829 26.9058Z" fill="#474747"/>
<path d="M121.077 30.2128C121.077 30.2128 122.949 45.4092 105.974 51.8893L121.077 30.2128Z" fill="#474747"/>
<path d="M74.164 56.4036C73.0369 59.5216 72.834 63.8569 75.4911 69.4135L74.164 56.4036Z" fill="#474747"/>
<path d="M78.2579 50.3881C78.2579 50.3881 77.0151 51.297 75.8163 53.0475L78.2579 50.3881Z" fill="#474747"/>
<path d="M60.9769 67.4326C61.3537 68.4677 61.7361 69.6079 62.333 70.7369L60.9769 67.4326Z" fill="#474747"/>
<path d="M66.3181 52.3851C66.3181 52.3851 59.5401 56.4322 60.3936 64.5094L66.3181 52.3851Z" fill="#474747"/>
<path d="M106.209 39.9578C102.247 44.3847 94.9937 49.6169 84.0351 47.7652L106.209 39.9578Z" fill="#474747"/>
<path d="M110.02 34.6952C110.02 34.6952 109.63 35.4541 108.838 36.7613L110.02 34.6952Z" fill="#474747"/>
<path d="M75.3659 79.335C75.3659 79.335 73.2616 74.0658 67.1651 74.7018C61.1759 75.3321 60.323 93.9412 79.9244 94.4961L75.3659 79.335Z" fill="#FF8592"/>
<path d="M75.2873 88.0943C75.2873 88.0943 73.1468 80.0845 66.866 79.2534" stroke="#3A1451" stroke-miterlimit="10" stroke-linecap="round" stroke-linejoin="round"/>
<path d="M69.9661 87.1072C69.9661 87.1072 69.952 84.7874 71.5136 81.7521" stroke="#3A1451" stroke-miterlimit="10" stroke-linecap="round" stroke-linejoin="round"/>
</g>
</g>
<defs>
<filter id="filter0_d" x="34.5516" y="16.0098" width="126.662" height="165.743" filterUnits="userSpaceOnUse" color-interpolation-filters="sRGB">
<feFlood flood-opacity="0" result="BackgroundImageFix"/>
<feColorMatrix in="SourceAlpha" type="matrix" values="0 0 0 0 0 0 0 0 0 0 0 0 0 0 0 0 0 0 127 0"/>
<feOffset dy="4"/>
<feGaussianBlur stdDeviation="2"/>
<feColorMatrix type="matrix" values="0 0 0 0 0 0 0 0 0 0 0 0 0 0 0 0 0 0 0.25 0"/>
<feBlend mode="normal" in2="BackgroundImageFix" result="effect1_dropShadow"/>
<feBlend mode="normal" in="SourceGraphic" in2="effect1_dropShadow" result="shape"/>
</filter>
</defs>
</svg>
