<svg width="185" height="175" viewBox="0 0 185 175" fill="none" xmlns="http://www.w3.org/2000/svg">
<circle cx="92.7649" cy="78" r="87.5" fill="#F2F99C"/>
<mask id="mask0" mask-type="alpha" maskUnits="userSpaceOnUse" x="0" y="0" width="185" height="175">
<ellipse cx="92.7649" cy="87.7348" rx="82.3286" ry="76.8154" transform="rotate(7.62246 92.7649 87.7348)" fill="#DDD1A4"/>
</mask>
<g mask="url(#mask0)">
<g filter="url(#filter0_d)">
<path d="M124.024 116.713C123.152 118.182 121.837 119.592 120.315 120.861C105.973 132.082 82.5078 96.9966 107.61 90.3873C111.345 89.4144 115.416 90.9788 118.836 94.0419C124.879 99.3819 128.527 109.159 124.024 116.713Z" fill="#474747"/>
<path d="M124.024 116.713C123.152 118.182 121.837 119.592 120.315 120.861C105.973 132.082 82.5078 96.9966 107.61 90.3873C111.345 89.4144 115.416 90.9788 118.836 94.0419C115.927 95.5784 108.955 100.536 112.78 110.677C115.25 117.464 120.251 118.813 124.024 116.713Z" fill="#474747"/>
<path d="M105.257 102.081C105.257 102.081 106.811 116.562 118.881 117.271L105.257 102.081Z" fill="#474747"/>
<path d="M109.694 100.069C109.694 100.069 117.804 105.12 121.122 113.153L109.694 100.069Z" fill="#474747"/>
<path d="M115.916 92.2923C115.722 93.739 114.356 94.689 113.028 94.5113C111.589 94.3188 110.647 92.9465 110.825 91.6111C111.019 90.1643 112.385 89.2144 113.713 89.3921C115.056 89.4585 116.109 90.8456 115.916 92.2923Z" fill="#474747"/>
<path d="M114.581 91.3207C114.492 91.9884 113.879 92.3595 113.326 92.2855C112.662 92.1966 112.294 91.5809 112.368 91.0245C112.458 90.3568 113.07 89.9857 113.624 90.0597C114.177 90.1338 114.671 90.653 114.581 91.3207Z" fill="#474747"/>
<path d="M112.894 95.513C112.7 96.9597 111.334 97.9097 110.006 97.732C108.568 97.5395 107.625 96.1672 107.804 94.8318C107.982 93.4963 109.363 92.4351 110.691 92.6128C112.034 92.6792 113.088 94.0663 112.894 95.513Z" fill="#474747"/>
<path d="M111.404 94.8607C111.315 95.5284 110.702 95.8995 110.149 95.8255C109.485 95.7366 109.117 95.121 109.191 94.5645C109.281 93.8968 109.893 93.5257 110.447 93.5998C111 93.6738 111.494 94.193 111.404 94.8607Z" fill="#474747"/>
<path d="M108.87 97.8064C108.676 99.2532 107.31 100.203 105.982 100.025C104.418 99.9294 103.475 98.5571 103.669 97.1104C103.863 95.6637 105.229 94.7137 106.557 94.8914C107.995 95.0839 109.064 96.3597 108.87 97.8064Z" fill="#474747"/>
<path d="M107.35 97.3763C107.261 98.0441 106.648 98.4152 106.095 98.3411C105.431 98.2523 105.063 97.6366 105.137 97.0802C105.212 96.5237 105.839 96.0413 106.393 96.1154C107.057 96.2042 107.425 96.8199 107.35 97.3763Z" fill="#474747"/>
<path d="M101.428 101.228C102.834 101.416 104.127 100.423 104.316 99.0094C104.505 97.5957 103.519 96.2973 102.113 96.1092C100.708 95.9211 99.4148 96.9145 99.2256 98.3282C99.0364 99.7418 100.023 101.04 101.428 101.228Z" fill="#474747"/>
<path d="M103.986 97.2651C103.986 97.2651 86.7257 105.037 58.6991 95.6223C36.6098 88.135 38.2455 59.9205 49.2767 41.4594C52.3155 36.4286 55.9288 32.1544 60.0422 29.1932C79.273 15.1146 93.1865 28.9843 93.1865 28.9843C100.673 25.2284 119.283 24.2072 123.641 43.8217C124.28 46.6259 124.623 49.9568 124.574 53.6886C124.338 83.2232 103.986 97.2651 103.986 97.2651Z" fill="#474747"/>
<path d="M103.986 97.2655C103.986 97.2655 86.7257 105.038 58.699 95.6228C36.6097 88.1354 38.2454 59.921 49.2767 41.4599C48.1256 47.5363 46.6002 63.9843 59.7092 72.0824C74.8973 81.4782 115.117 75.5327 123.656 43.7109C124.295 46.515 124.637 49.846 124.589 53.5778C124.338 83.2237 103.986 97.2655 103.986 97.2655Z" fill="#606060"/>
<path d="M53.1062 161.823C60.5774 146.397 77.1949 133.328 77.1949 133.328L76.9882 121.406L76.8112 109.262L104.141 91.0559L103.365 116.214L102.932 132.921C118.705 152.251 122.711 171.138 122.711 171.138L53.1062 161.823Z" fill="#FBBBC2"/>
<path d="M103.255 116.199C94.434 124.874 82.5573 122.718 76.8775 121.392L76.7005 109.247L104.031 91.0414L103.255 116.199Z" fill="#FBBBC2"/>
<path d="M122.6 171.123L53.1062 161.823C60.5774 146.397 77.1949 133.328 77.1949 133.328C77.1949 133.328 79.0763 139.471 88.5057 139.713C92.549 139.801 95.7602 138.532 98.0861 137.144C101.165 135.177 102.836 132.795 102.836 132.795C118.609 152.124 122.6 171.123 122.6 171.123Z" fill="#F02715"/>
<path d="M92.5008 167.095C101.577 154.829 99.4673 141.973 98.1967 137.158C101.276 135.192 102.946 132.81 102.946 132.81C118.72 152.139 122.726 171.027 122.726 171.027L92.5156 166.984L92.5008 167.095Z" fill="#D50000"/>
<path d="M117.745 152.689C112.104 156.125 102.918 168.376 102.918 168.376L82.7778 165.681C90.5637 146.219 108.586 136.963 108.586 136.963C110.288 138.55 112.336 141.769 114.051 144.944C116.105 148.957 117.745 152.689 117.745 152.689Z" fill="#3C5FC7"/>
<path d="M117.745 152.689C112.104 156.125 102.918 168.376 102.918 168.376L93.0689 167.058C100.853 155.186 109.576 148.084 114.051 144.945C116.105 148.958 117.745 152.689 117.745 152.689Z" fill="#3257B2"/>
<path d="M88.4305 110.816C85.0342 112.627 81.491 113.852 77.9563 114.172C65.9201 115.733 54.9498 108.488 54.1853 88.1083C53.0737 61.9051 64.3814 34.6451 89.2861 38.771C94.5679 39.7044 98.69 41.7287 102.014 44.6658C110.395 51.9044 112.955 63.915 111.993 71.9425C110.6 83.1973 103.699 102.778 88.4305 110.816Z" fill="#FBBBC2"/>
<path d="M88.4304 110.817C85.034 112.628 81.4909 113.853 77.9562 114.173C101.03 106.726 102.791 66.6337 102.014 44.6666C110.394 51.9052 112.955 63.9158 111.993 71.9433C110.6 83.1981 103.699 102.778 88.4304 110.817Z" fill="#FF8592"/>
<path d="M71.7584 77.9992C71.7584 77.9992 69.0432 83.9795 69.2411 85.0255C69.4242 86.1828 74.3379 86.5006 74.3379 86.5006" stroke="#3A1451" stroke-miterlimit="10" stroke-linecap="round" stroke-linejoin="round"/>
<path d="M66.7899 92.4004C66.7899 92.4004 69.3159 90.3595 70.7693 90.4408C72.2228 90.522 73.5039 92.7325 73.5039 92.7325C73.5039 92.7325 74.5615 90.7217 76.3108 90.2761C78.1558 89.9566 81.1648 91.039 81.1648 91.039C81.1648 91.039 78.5305 97.2567 73.0104 98.1039C67.4902 98.9511 66.4027 95.2938 66.7899 92.4004Z" fill="#F02715"/>
<path d="M63.3934 88.3215C63.3934 88.3215 65.2152 94.909 73.406 94.306C81.0287 93.7402 86.5507 85.3035 86.5507 85.3035" stroke="#3A1451" stroke-miterlimit="10" stroke-linecap="round" stroke-linejoin="round"/>
<path d="M68.3342 72.4437C68.1256 74.0018 67.1872 75.1223 66.3019 75.0038C65.4167 74.8853 64.8059 73.5575 65.0144 71.9995C65.2229 70.4414 66.1613 69.3209 67.0466 69.4394C67.9319 69.5579 68.5427 70.8857 68.3342 72.4437Z" fill="#3A1451"/>
<path d="M84.3968 72.7809C84.1734 74.4502 83.2201 75.682 82.2241 75.5487C81.2282 75.4154 80.6323 73.9763 80.8557 72.307C81.0791 70.6377 82.0324 69.4059 83.0284 69.5392C84.0243 69.6725 84.6202 71.1116 84.3968 72.7809Z" fill="#3A1451"/>
<path d="M63.965 61.324C63.965 61.324 66.0419 58.4301 69.7873 60.7438" stroke="#3A1451" stroke-miterlimit="10" stroke-linecap="round" stroke-linejoin="round"/>
<path d="M82.5748 60.3023C82.5748 60.3023 85.139 57.1338 89.6208 60.6789" stroke="#3A1451" stroke-miterlimit="10" stroke-linecap="round" stroke-linejoin="round"/>
<path d="M76.8269 60.3269C76.7078 61.2172 76.0651 61.8108 75.5118 61.7368C74.8479 61.6479 74.4946 60.921 74.6138 60.0307C74.7329 59.1404 75.3756 58.5467 75.9289 58.6207C76.4821 58.6948 76.9312 59.5479 76.8269 60.3269Z" fill="white"/>
<path d="M50.9441 83.7101C50.9441 83.7101 51.4436 61.4608 66.9164 55.262C82.3893 49.0632 86.2473 43.8022 86.2473 43.8022C86.2473 43.8022 78.0999 75.2233 102.39 81.4193L101.085 86.1158L106.997 84.8679C106.997 84.8679 118.292 73.6921 119.922 56.465C121.551 39.2379 88.3429 25.618 71.9593 34.4136C55.4651 43.1944 45.1595 65.4908 50.9441 83.7101Z" fill="#474747"/>
<path d="M81.28 27.0519C83.0655 27.1775 84.9318 27.5406 86.8641 28.2523L81.28 27.0519Z" fill="#474747"/>
<path d="M46.5918 70.7801C46.5577 68.51 46.6641 66.032 47.162 63.1534C49.3556 49.2869 60.8401 28.281 77.9155 26.9412" fill="#474747"/>
<path d="M51.9678 85.3201C51.9678 85.3201 49.0118 82.9988 47.5284 77.2495L51.9678 85.3201Z" fill="#474747"/>
<path d="M53.6226 59.4872C54.9652 53.663 57.674 46.8889 62.8387 41.1231C75.281 27.2688 86.4023 31.7024 86.4023 31.7024" fill="#474747"/>
<path d="M52.3058 74.3769C52.3058 74.3769 52.0504 72.0771 52.3057 68.4863L52.3058 74.3769Z" fill="#474747"/>
<path d="M60.0024 55.5831C60.0024 55.5831 67.7204 37.4716 83.9531 37.3784L60.0024 55.5831Z" fill="#474747"/>
<path d="M99.5824 72.0952C100.872 73.4006 102.413 74.513 104.205 75.4325L99.5824 72.0952Z" fill="#474747"/>
<path d="M92.4186 41.4577C92.4186 41.4577 89.3802 58.2697 97.2543 69.2922L92.4186 41.4577Z" fill="#474747"/>
<path d="M104.621 66.4263C105.637 68.941 106.696 71.1219 107.816 72.8576L104.621 66.4263Z" fill="#474747"/>
<path d="M96.5682 39.0674C96.5682 39.0674 99.3563 51.9013 103.121 62.4871L96.5682 39.0674Z" fill="#474747"/>
<path d="M97.8726 34.3711C97.8726 34.3711 120.194 39.2841 114.43 70.571L97.8726 34.3711Z" fill="#474747"/>
<path d="M121.703 54.0991C121.797 55.9241 121.765 57.8456 121.593 59.9749L121.703 54.0991Z" fill="#474747"/>
<path d="M100.969 30.5933C100.969 30.5933 117.387 29.9584 120.979 48.5641L100.969 30.5933Z" fill="#474747"/>
<path d="M105.703 81.0692C105.703 81.0692 110.951 73.8418 116.037 77.9209C121.138 81.8887 109.034 96.5812 101.277 92.258L105.703 81.0692Z" fill="#FBBBC2"/>
<path d="M114.498 81.0009C114.498 81.0009 110.774 79.3697 106.227 87.2571L114.498 81.0009Z" fill="#FF8592"/>
<path d="M109.9 82.5376C109.9 82.5376 110.917 83.3534 109.576 87.4787L109.9 82.5376Z" fill="#FF8592"/>
</g>
</g>
<defs>
<filter id="filter0_d" x="33.5573" y="18.71" width="103.355" height="160.428" filterUnits="userSpaceOnUse" color-interpolation-filters="sRGB">
<feFlood flood-opacity="0" result="BackgroundImageFix"/>
<feColorMatrix in="SourceAlpha" type="matrix" values="0 0 0 0 0 0 0 0 0 0 0 0 0 0 0 0 0 0 127 0"/>
<feOffset dy="4"/>
<feGaussianBlur stdDeviation="2"/>
<feColorMatrix type="matrix" values="0 0 0 0 0 0 0 0 0 0 0 0 0 0 0 0 0 0 0.25 0"/>
<feBlend mode="normal" in2="BackgroundImageFix" result="effect1_dropShadow"/>
<feBlend mode="normal" in="SourceGraphic" in2="effect1_dropShadow" result="shape"/>
</filter>
</defs>
</svg>
