<svg width="24" height="24" viewBox="0 0 24 24" fill="none" xmlns="http://www.w3.org/2000/svg">
<rect width="24" height="24" rx="4" fill="#A1C349"/>
<path d="M17.5489 9.24238L16.517 8.21209C16.3755 8.07072 16.2034 8 16.0011 8C15.7986 8 15.6265 8.07072 15.485 8.21209L10.5073 13.1894L8.27638 10.9545C8.13472 10.8131 7.96274 10.7424 7.76046 10.7424C7.55805 10.7424 7.38606 10.8131 7.24441 10.9545L6.21246 11.9848C6.0708 12.1262 6 12.298 6 12.5001C6 12.702 6.0708 12.8739 6.21246 13.0153L8.95926 15.7576L9.99128 16.7879C10.1329 16.9294 10.3049 17 10.5073 17C10.7095 17 10.8816 16.9292 11.0232 16.7879L12.0552 15.7576L17.5489 10.2728C17.6904 10.1313 17.7614 9.95959 17.7614 9.75753C17.7615 9.55557 17.6904 9.38381 17.5489 9.24238Z" fill="white"/>
</svg>
